<?xml version="1.0" encoding="UTF-8"?>
<!DOCTYPE svg PUBLIC "-//W3C//DTD SVG 1.1//EN" "http://www.w3.org/Graphics/SVG/1.1/DTD/svg11.dtd">
<!-- Creator: CorelDRAW 2021 (64-Bit) -->
<svg xmlns="http://www.w3.org/2000/svg" xml:space="preserve" width="45mm" height="45mm" version="1.1" style="shape-rendering:geometricPrecision; text-rendering:geometricPrecision; image-rendering:optimizeQuality; fill-rule:evenodd; clip-rule:evenodd"
viewBox="0 0 4500 4500"
 xmlns:xlink="http://www.w3.org/1999/xlink"
 xmlns:xodm="http://www.corel.com/coreldraw/odm/2003">
 <defs>
  <style type="text/css">
   <![CDATA[
    .fil0 {fill:#FEFEFE}
   ]]>
  </style>
 </defs>
 <g id="Layer_x0020_1">
  <metadata id="CorelCorpID_0Corel-Layer"/>
  <g id="_2731860960">
   <path class="fil0" d="M674.53 2292.13c0,-451.5 147.22,-849.11 449.93,-1150.07 255.13,-253.64 647.25,-463.27 1030.08,-463.27 321.33,0 498.05,8.11 791.21,155.46 175.42,88.16 294.26,176.87 425.46,307.88 132.45,132.28 216.08,257.18 303.38,429.95 206.9,409.43 193.62,963.44 -8.57,1378.2 -114.94,235.79 -303.48,451.7 -522.02,597.98 -1100,736.29 -2469.47,-91.8 -2469.47,-1256.13zm1609.39 1960l-128.11 0c-288.11,-9.18 -571.94,-79.75 -822.38,-218.89 -301.77,-167.65 -519.36,-349.08 -719.96,-626.71 -72.02,-99.67 -127.63,-200.61 -179.36,-313.97 -131.06,-287.25 -186.24,-501.82 -186.24,-880.43 0,-807.2 496.31,-1445.62 1137.75,-1768.91 186.4,-93.95 495.3,-191.09 768.92,-191.09 469.47,0 563.26,25.14 967.86,192.13l154.79 85.22c261.93,156.78 499.55,386.51 661.48,645.19 243.93,389.69 309.2,681.92 309.2,1170.79 0,507.27 -267.93,1006.13 -596.65,1336.68 -349.46,351.39 -858.34,554.41 -1367.3,569.99z"/>
   <path class="fil0" d="M1047.87 2198.8c0,369.86 96.95,625.12 339.56,887.1 175.98,190.04 515.7,352.9 780.44,352.9 274.2,0 455.93,-20.22 696.11,-170.56 82.21,-51.45 133.25,-92.61 200.63,-159.36 103.91,-102.94 150.86,-225.22 86.18,-373.01 -46.76,-106.85 -158.88,-190.41 -289.59,-190.41 -281.85,0 -215.21,253.34 -653.33,253.34 -467.98,0 -730.58,-666.95 -305.07,-985.08 227.62,-170.19 481.08,-153.81 712.78,30.71 76.55,60.96 94.58,96.69 224.19,109.45 278.42,27.41 472,-347.31 224.97,-571.95 -488.16,-443.91 -1215.01,-426.27 -1653.8,6.6 -172.55,170.21 -363.07,473.98 -363.07,810.27z"/>
   <path class="fil0" d="M2021.21 2212.13c0,401.39 466.66,301.25 466.66,40 0,-128.64 -111.36,-240 -240,-240 -98.63,0 -226.66,102.2 -226.66,200z"/>
  </g>
 </g>
</svg>
