<?xml version="1.0" encoding="UTF-8"?>
<!DOCTYPE svg PUBLIC "-//W3C//DTD SVG 1.1//EN" "http://www.w3.org/Graphics/SVG/1.1/DTD/svg11.dtd">
<!-- Creator: CorelDRAW 2021 (64-Bit) -->
<svg xmlns="http://www.w3.org/2000/svg" xml:space="preserve" width="45mm" height="45mm" version="1.1" style="shape-rendering:geometricPrecision; text-rendering:geometricPrecision; image-rendering:optimizeQuality; fill-rule:evenodd; clip-rule:evenodd"
viewBox="0 0 4500 4500"
 xmlns:xlink="http://www.w3.org/1999/xlink"
 xmlns:xodm="http://www.corel.com/coreldraw/odm/2003">
 <defs>
  <style type="text/css">
   <![CDATA[
    .fil0 {fill:#FEFEFE}
   ]]>
  </style>
 </defs>
 <g id="Layer_x0020_1">
  <metadata id="CorelCorpID_0Corel-Layer"/>
  <path class="fil0" d="M2021.21 2212.13c0,401.39 466.66,301.25 466.66,40 0,-128.64 -111.36,-240 -240,-240 -98.63,0 -226.66,102.2 -226.66,200zm-1346.68 80c0,-451.5 147.22,-849.11 449.93,-1150.07 255.13,-253.64 647.25,-463.27 1030.08,-463.27 321.33,0 498.05,8.11 791.21,155.46 175.42,88.16 294.26,176.87 425.46,307.88 132.45,132.28 216.08,257.18 303.38,429.95 206.9,409.43 193.62,963.44 -8.57,1378.2 -31,63.59 -67.35,125.71 -108.2,185.43 -41.78,6.56 -79.27,21.56 -111.1,43.79 3.66,-37.23 7.55,-74.43 11.59,-111.6 8.86,-81.67 16.63,-163.45 16.63,-245.68l0 -21.7c0,-55.43 -12.23,-108.41 -40.38,-156.65l-1.15 -1.98 -1.2 -1.94c-47.92,-77.87 -129.09,-124.88 -221.02,-124.88l-13.44 0 -5.69 0.33c-65.77,3.87 -124.29,32.1 -167.53,76.82 -47.56,-29.24 -103.49,-46.76 -163.33,-46.76 -86.91,0 -140.66,24.12 -186.33,57.43 -21.69,-21.06 -47.03,-38.47 -75.49,-50.83 -33.45,-15.43 -68.46,-23.04 -105.52,-23.04 -63.4,0 -122.78,23.74 -170.2,65.58 -44.32,39.1 -75.5,90.98 -89.4,148.36 -4.8,18.61 -9.56,37.17 -14.2,55.73 -4.05,0.05 -8.05,0.11 -12.19,0.11 -467.98,0 -730.58,-666.95 -305.07,-985.08 227.62,-170.19 481.08,-153.81 712.78,30.71 76.55,60.96 94.58,96.69 224.19,109.45 278.42,27.41 472,-347.31 224.97,-571.95 -488.16,-443.91 -1215.01,-426.27 -1653.8,6.6 -172.55,170.21 -363.07,473.98 -363.07,810.27 0,369.86 96.95,625.12 339.56,887.1 24.99,26.99 53.3,53.43 84.21,78.93 -13.9,7.54 -26.92,16.3 -38.99,26.21 -46.86,-36.2 -105.71,-57.54 -170.7,-57.54 -35.95,0 -70.02,5.9 -103.77,18.55 -4.27,1.6 -8.54,3.27 -12.8,4.99 -45.59,-31.53 -100.41,-49.89 -160.87,-49.89 -19.99,0 -39.68,2.19 -58.91,6.29 -157.55,-236.31 -251.07,-517.3 -251.07,-821.31zm-167.22 946.7c-2.05,2.27 -4.07,4.56 -6.06,6.9 -40.73,46.48 -62.78,103.1 -68.91,164.01 -4.37,26.51 -7.47,53.14 -10.61,79.82 -13.32,90.62 -21.81,181.82 -21.81,273.48 0,43.09 1.74,86.32 5.32,129.26l0.22 2.66 0.3 2.66c7.38,66.42 15.75,131.66 34.17,196.16 35.61,124.61 138.16,207.35 268.69,207.35l18.91 0 11.08 -1.28c83.92,-9.68 151.18,-52.69 193.72,-115.92 19.73,4.69 40.31,7.15 61.48,7.15 21.87,0 43.18,-2.58 63.74,-7.56 1.73,3.43 3.51,6.85 5.32,10.25 38.64,72.45 95.39,127.41 173.59,154.79 29.28,10.76 57.71,14.57 89.04,14.57 76.92,0 147.15,-33.09 195.56,-86.57 2.66,0.61 5.34,1.19 8.04,1.74 32.59,7.24 65.89,10.43 99.26,10.43 84.68,0 162.1,-24.2 228.19,-69.04 98.41,18.51 198.57,29.23 299.26,32.44l102.84 0c47.93,46.07 112.85,73.8 184.06,73.8l10.74 0 35.52 -3.95 10.68 -2.42c35.6,-8.09 68.08,-22.95 96.25,-43.03 47.91,21.96 101.38,33.9 158.98,33.9 37.3,0 74.42,-4.04 110.33,-14.21 61.35,-15.01 116.84,-39.62 167.47,-71.95 66.97,63.68 156.06,100.11 254.46,100.11 70.56,0 142.93,-19.42 205.03,-55.35 11.6,3.67 23.52,6.77 35.78,9.27 32.59,7.24 65.89,10.43 99.26,10.43 130.91,0 244.45,-57.85 325.65,-160.31 28.93,-36.51 53,-76.89 71.85,-119.48 39.46,-89.15 56.24,-183.3 58.39,-280.34l0.1 -4.58 -0.11 -4.58c-1.95,-77.95 -10.45,-154.25 -32.91,-229.13 -20.8,-69.36 -54.45,-133.72 -98.64,-188.21 177.03,-283.47 296.33,-618.18 296.33,-956.64 0,-488.87 -65.27,-781.1 -309.2,-1170.79 -161.93,-258.68 -399.55,-488.41 -661.48,-645.19l-154.79 -85.22c-404.6,-166.99 -498.39,-192.13 -967.86,-192.13 -273.62,0 -582.52,97.14 -768.92,191.09 -641.44,323.29 -1137.75,961.71 -1137.75,1768.91 0,378.61 55.18,593.18 186.24,880.43 23.24,50.92 47.26,99.34 73.2,146.27zm818.19 930.3c34.09,0 65.09,-24.8 68.19,-60.45l1.55 -10.85c0,-15.5 -7.75,-31 -18.6,-43.4 -15.5,-20.15 -24.8,-43.4 -32.54,-68.2 -13.95,-43.4 -21.7,-88.35 -26.35,-133.29 -3.1,-31 -4.65,-62 -4.65,-93 0,-72.85 7.75,-144.15 20.15,-216.99 6.2,-37.2 15.49,-75.95 15.49,-114.7l0 -13.95c-3.09,-52.7 -40.29,-86.8 -86.79,-86.8 -12.4,0 -23.25,1.55 -35.65,6.2 -12.4,4.65 -26.35,10.85 -37.2,17.05 -32.55,18.6 -58.9,41.85 -82.15,68.2 -4.65,4.65 -6.2,12.4 -13.95,12.4l-4.65 0c-1.55,-13.95 -3.1,-27.9 -6.2,-41.85 -13.95,-55.8 -52.69,-88.35 -97.64,-88.35 -21.7,0 -46.5,9.3 -71.3,26.35 -26.35,18.6 -46.5,41.85 -65.1,68.2 -31,41.85 -57.35,86.8 -80.6,131.75 -3.1,7.75 -4.65,15.5 -17.05,21.7 3.1,-43.4 3.1,-83.7 10.85,-122.45l1.55 -12.4c0,-26.35 -13.95,-49.6 -38.74,-60.45 -9.3,-4.65 -18.6,-6.2 -26.35,-6.2 -18.6,0 -35.65,7.75 -49.6,24.8 -15.5,17.05 -21.7,38.75 -23.25,62 -4.65,26.35 -7.75,54.25 -10.85,80.6 -12.4,83.69 -20.15,165.84 -20.15,247.99 0,37.2 1.55,75.95 4.65,113.15 6.2,55.79 12.4,111.59 27.9,164.29 12.4,44.95 41.85,66.65 82.15,66.65l7.75 0c40.29,-4.65 65.09,-31 71.29,-77.5 3.1,-20.15 4.65,-40.3 6.2,-60.45 9.3,-145.69 49.6,-282.09 120.9,-407.63 4.65,-7.75 6.2,-18.6 18.6,-21.7l-15.5 108.49c-6.2,54.25 -12.4,106.95 -12.4,161.2 0,18.6 1.55,38.75 3.1,57.35 3.1,29.44 7.75,57.34 18.6,83.69 13.95,31 38.75,46.5 66.65,46.5 18.6,0 35.65,-6.2 52.69,-20.15 17.05,-15.5 27.9,-35.65 32.55,-57.35l12.4 -72.84c18.6,-80.6 34.1,-162.75 71.3,-238.7 3.1,-6.2 3.1,-15.5 13.95,-18.6l1.55 10.85c0,9.3 -1.55,17.05 -3.1,26.35 -4.65,44.95 -7.75,88.35 -7.75,133.3 0,71.3 7.75,142.59 23.25,213.89 9.3,44.95 21.7,88.35 43.4,128.65 15.5,29.45 35.65,52.7 68.2,63.55 7.75,3.1 15.5,3.1 23.25,3.1zm310.61 -220.1l-9.3 0c-24.8,0 -43.4,-10.85 -54.25,-34.1 -17.04,-32.54 -27.89,-68.19 -27.89,-105.39 1.55,-91.45 15.49,-181.35 52.69,-265.04 6.2,-13.95 12.4,-26.35 29.45,-29.45 4.65,-1.55 9.3,-6.2 15.5,-9.3 9.3,-7.75 13.95,-12.4 18.6,-12.4 6.2,0 10.85,6.2 20.15,15.5 37.2,37.2 49.6,85.24 55.8,134.84 4.65,26.35 7.75,54.25 7.75,80.6 -1.55,51.15 -7.75,99.2 -27.9,145.7 -9.3,21.69 -21.7,41.84 -38.75,58.89 -10.85,10.85 -24.8,18.6 -41.85,20.15zm-7.75 145.7c68.2,0 127.1,-27.9 173.6,-86.8 18.6,-23.25 34.1,-49.6 46.5,-77.5 29.44,-66.64 40.29,-136.39 41.84,-206.14 -1.55,-62 -7.75,-120.9 -24.79,-178.24 -29.45,-97.65 -111.6,-215.45 -251.1,-220.1l-6.2 0c-44.95,0 -69.74,18.6 -77.49,66.65 -1.55,10.85 -3.1,20.15 -10.85,27.9 -24.8,24.8 -40.3,57.35 -57.35,88.35 -44.95,92.99 -62,190.64 -63.55,291.39 0,75.95 18.6,147.24 62,210.79 26.35,38.75 60.45,68.2 108.49,77.5 20.15,4.65 40.3,6.2 58.9,6.2zm476.46 -206.15c-4.65,0 -7.75,-4.65 -10.85,-13.94 -9.29,-32.55 -12.39,-65.1 -12.39,-97.65l3.1 -57.35c7.74,-69.75 29.44,-136.4 65.09,-196.84 10.85,-17.05 21.7,-32.55 35.65,-44.95 9.3,-6.2 17.05,-12.4 31,-12.4 4.65,3.1 10.85,4.65 17.05,7.75 13.95,7.75 27.9,17.05 38.75,27.9 21.7,21.7 32.55,32.55 32.55,46.5 0,10.85 -6.2,23.25 -15.5,44.94 -35.65,79.05 -72.85,158.1 -124,229.4 -13.95,21.7 -27.9,41.85 -48.05,58.9l-12.4 7.74zm337.89 243.35l13.95 -1.55c34.1,-7.75 57.35,-37.2 57.35,-72.85l-1.55 -15.5c-3.1,-26.35 -7.75,-54.25 -12.4,-80.6 -17.05,-97.64 -26.35,-195.29 -26.35,-294.49l0 -40.3c0,-123.99 6.2,-246.44 18.6,-368.88 12.4,-124 24.8,-246.45 46.5,-368.89 3.1,-15.5 9.3,-29.45 18.6,-43.4 6.2,-10.85 9.3,-23.25 9.3,-37.2 0,-32.55 -18.6,-68.2 -46.5,-79.05 -9.3,-4.65 -17.05,-6.2 -26.35,-6.2 -15.5,0 -29.45,6.2 -41.85,17.05 -13.95,12.4 -24.8,29.45 -29.45,49.6 -24.8,96.1 -49.59,193.74 -58.89,294.49 -7.75,89.9 -17.05,179.79 -26.35,269.69l0 4.65c0,3.1 0,6.2 -6.2,10.85l-38.75 -24.8c-27.9,-17.05 -55.8,-24.8 -83.7,-24.8 -32.55,0 -65.1,10.85 -97.65,32.55 -29.44,20.15 -54.24,44.95 -72.84,75.95 -68.2,106.95 -100.75,221.64 -100.75,345.64 0,17.05 0,35.65 1.55,54.25 3.1,44.95 12.4,89.89 32.55,131.74 26.35,51.15 68.2,80.6 120.89,80.6 13.95,0 27.9,-3.1 41.85,-6.2 38.75,-10.85 69.75,-34.1 97.65,-63.55 34.1,-34.1 58.9,-74.4 85.25,-114.69 4.65,-6.2 4.65,-15.5 17.05,-17.05l4.65 32.55c10.85,66.64 20.15,133.29 32.55,198.39 6.2,38.75 37.19,62 71.29,62zm281.17 -457.24l-12.4 0c15.5,-46.5 32.55,-89.9 58.9,-128.64 13.95,-18.6 27.9,-34.1 49.6,-44.95l12.4 -3.1c9.3,0 13.95,6.2 15.5,20.15l0 9.3c0,7.75 -1.55,15.5 -4.65,23.25 -23.25,49.59 -57.35,89.89 -105.4,119.34l-13.95 4.65zm31 441.74c18.6,0 40.3,-1.55 60.45,-7.75 93,-21.7 164.3,-77.5 224.74,-147.25 17.05,-18.6 24.8,-40.3 24.8,-60.45 0,-17.05 -6.2,-34.09 -21.7,-48.04 -13.95,-13.95 -29.44,-20.15 -46.49,-20.15 -20.15,0 -40.3,9.3 -60.45,29.45 -23.25,21.69 -46.5,44.94 -72.85,65.09 -24.8,20.15 -54.25,34.1 -86.8,41.85l-18.6 1.55c-23.25,0 -35.65,-9.3 -48.05,-34.1 -15.49,-35.65 -20.14,-71.29 -21.69,-110.04 0,-12.4 4.65,-15.5 13.95,-15.5l15.49 0c12.4,0 24.8,-1.55 37.2,-6.2 116.25,-35.65 193.75,-111.6 232.5,-227.85 4.65,-15.49 7.75,-32.54 7.75,-49.59 0,-13.95 -1.55,-27.9 -4.65,-41.85 -15.5,-82.15 -79.05,-134.85 -153.45,-134.85 -20.15,0 -38.75,3.1 -58.9,10.85 -58.9,20.15 -102.29,62 -134.84,113.15 -63.55,102.29 -97.65,213.89 -100.75,333.24l0 13.95c0,57.35 9.3,114.69 32.55,167.39 35.65,82.15 99.2,127.1 179.79,127.1zm532.26 13.95c60.45,0 120.9,-27.9 153.45,-66.65 12.4,-12.4 18.6,-26.35 18.6,-41.85 0,-9.3 -3.1,-20.15 -9.3,-31 -10.85,-23.25 -32.55,-35.65 -58.9,-35.65l-9.3 0c-17.05,1.55 -32.55,7.75 -48.05,15.5 -13.95,6.2 -26.35,10.85 -41.85,12.4l-6.2 0c-13.95,0 -21.7,-4.65 -27.9,-21.7 -6.2,-15.5 -10.85,-31 -12.4,-46.5 -10.85,-69.74 -17.05,-139.49 -18.6,-209.24l0 -65.1c0,-199.94 17.05,-396.78 38.75,-593.63 7.75,-74.4 15.5,-150.34 15.5,-224.74l0 -21.7c0,-20.15 -3.1,-40.3 -13.95,-58.9 -12.4,-20.15 -31,-32.55 -55.8,-32.55l-7.74 0c-26.35,1.55 -46.5,18.6 -55.8,44.95 -6.2,17.05 -6.2,35.65 -7.75,54.25l1.55 44.95 -20.15 181.34c-21.7,195.3 -40.3,390.59 -40.3,610.68l0 48.05c0,48.05 4.65,122.45 13.95,196.84 4.65,46.5 10.85,91.45 29.45,133.3 34.1,75.95 99.19,106.95 162.74,106.95zm347.82 -181.35l-9.3 0c-24.8,0 -43.4,-10.85 -54.25,-34.1 -17.04,-32.54 -27.89,-68.19 -27.89,-105.39 1.55,-91.45 15.49,-181.35 52.69,-265.04 6.2,-13.95 12.4,-26.35 29.45,-29.45 4.65,-1.55 9.3,-6.2 15.5,-9.3 9.3,-7.75 13.95,-12.4 18.6,-12.4 6.2,0 10.85,6.2 20.15,15.5 37.2,37.2 49.6,85.24 55.8,134.84 4.65,26.35 7.75,54.25 7.75,80.6 -1.55,51.15 -7.75,99.2 -27.9,145.7 -9.3,21.69 -21.7,41.84 -38.75,58.89 -10.85,10.85 -24.8,18.6 -41.85,20.15zm-7.75 145.7c68.2,0 127.1,-27.9 173.6,-86.8 18.6,-23.25 34.1,-49.6 46.5,-77.5 29.44,-66.64 40.29,-136.39 41.84,-206.14 -1.55,-62 -7.75,-120.9 -24.79,-178.24 -29.45,-97.65 -111.6,-215.45 -251.1,-220.1l-6.2 0c-44.95,0 -69.74,18.6 -77.49,66.65 -1.55,10.85 -3.1,20.15 -10.85,27.9 -24.8,24.8 -40.3,57.35 -57.35,88.35 -44.95,92.99 -62,190.64 -63.55,291.39 0,75.95 18.6,147.24 62,210.79 26.35,38.75 60.45,68.2 108.49,77.5 20.15,4.65 40.3,6.2 58.9,6.2z"/>
 </g>
</svg>
