<?xml version="1.0" encoding="UTF-8"?>
<!DOCTYPE svg PUBLIC "-//W3C//DTD SVG 1.1//EN" "http://www.w3.org/Graphics/SVG/1.1/DTD/svg11.dtd">
<!-- Creator: CorelDRAW 2021 (64-Bit) -->
<svg xmlns="http://www.w3.org/2000/svg" xml:space="preserve" width="45mm" height="45mm" version="1.1" style="shape-rendering:geometricPrecision; text-rendering:geometricPrecision; image-rendering:optimizeQuality; fill-rule:evenodd; clip-rule:evenodd"
viewBox="0 0 4500 4500"
 xmlns:xlink="http://www.w3.org/1999/xlink"
 xmlns:xodm="http://www.corel.com/coreldraw/odm/2003">
 <defs>
  <style type="text/css">
   <![CDATA[
    .fil0 {fill:#FEFEFE}
   ]]>
  </style>
 </defs>
 <g id="Layer_x0020_1">
  <metadata id="CorelCorpID_0Corel-Layer"/>
  <g id="_2001451552">
   <path class="fil0" d="M228.49 1644.74l0 2469.01c0,81.65 76.11,157.76 157.76,157.76l347.08 0 0 -2003.6c0,-104.9 67.75,-181.43 173.55,-181.43l2681.98 0c105.8,0 173.55,76.53 173.55,181.43l0 2003.6 347.08 0c81.65,0 157.76,-76.11 157.76,-157.76l0 -2469.01c0,-71.39 -146.19,-152.35 -222.52,-203.44l-1069.67 -736.74c-23.94,-16.25 -41.13,-30.36 -64.55,-45.88l-504.88 -347.05c-67.51,-44.95 -105.28,-71.14 -137.75,-78.88l-40.01 0c-31.8,7.6 -68.4,32.93 -133.05,75.71l-1765.35 1216.39c-38.09,25.18 -100.98,61.54 -100.98,119.89z"/>
   <path class="fil0" d="M1151.41 3514.24l0 662.61c0,50.92 29.53,94.66 78.88,94.66l859.82 0c51.23,0 78.88,-50.65 78.88,-102.55l0 -623.16c0,-61.23 -25.88,-118.33 -86.77,-118.33l-299.75 0c0,104.25 23.34,252.43 -134.1,252.43 -42.31,0 -110.44,-43.06 -110.44,-118.33l0 -134.1 -299.75 0c-46.09,0 -86.77,40.68 -86.77,86.77z"/>
   <path class="fil0" d="M2326.75 3545.8l0 623.16c0,51.9 27.65,102.55 78.88,102.55l859.82 0c49.35,0 78.88,-43.74 78.88,-94.66l0 -662.61c0,-46.09 -40.68,-86.77 -86.77,-86.77l-299.75 0c0,80.97 12.89,167.73 -29.95,214.59 -68.54,74.98 -214.58,34.12 -214.58,-88.37l0 -126.22 -299.76 0c-60.89,0 -86.77,57.1 -86.77,118.33z"/>
   <path class="fil0" d="M1743.02 2496.67l0 686.27c0,42.88 36.4,78.88 78.89,78.88l851.92 0c44.32,0 78.89,-34.57 78.89,-78.88l0 -686.27c0,-49.36 -43.74,-78.89 -94.66,-78.89l-283.98 0c0,89.12 20.53,252.43 -126.21,252.43 -146.74,0 -126.21,-163.31 -126.21,-252.43l-283.98 0c-50.92,0 -94.66,29.53 -94.66,78.89z"/>
  </g>
 </g>
</svg>
