<?xml version="1.0" encoding="UTF-8"?>
<!DOCTYPE svg PUBLIC "-//W3C//DTD SVG 1.1//EN" "http://www.w3.org/Graphics/SVG/1.1/DTD/svg11.dtd">
<!-- Creator: CorelDRAW 2021 (64-Bit) -->
<svg xmlns="http://www.w3.org/2000/svg" xml:space="preserve" width="45mm" height="45mm" version="1.1" style="shape-rendering:geometricPrecision; text-rendering:geometricPrecision; image-rendering:optimizeQuality; fill-rule:evenodd; clip-rule:evenodd"
viewBox="0 0 4500 4500"
 xmlns:xlink="http://www.w3.org/1999/xlink"
 xmlns:xodm="http://www.corel.com/coreldraw/odm/2003">
 <defs>
  <style type="text/css">
   <![CDATA[
    .fil0 {fill:#FEFEFE}
   ]]>
  </style>
 </defs>
 <g id="Layer_x0020_1">
  <metadata id="CorelCorpID_0Corel-Layer"/>
  <path class="fil0" d="M669.23 664.53l0 493.33c-52.14,0 -104.27,-0.03 -156.41,0.19 -59.34,0.24 -90.85,-8.67 -156,-8.44 -51.05,0.17 -107.47,-6.16 -144.48,11.79 -33.04,16.02 -69.32,50.73 -69.32,95.12l0 2285.74c0,38.51 34.87,78.7 60.71,95.51 41.16,26.76 76.65,14.38 135.41,20.8 45.94,5.03 96.09,3.09 148.77,7.45 247.31,20.44 483.38,30.63 738.97,58.58 326.02,35.65 601.59,95.84 898.79,202.96 199.86,72.04 78.91,47.57 353.38,-39.01 85.27,-26.9 158.64,-46.85 250.6,-70.07 194.5,-49.13 669.62,-117.52 891.32,-128.21 30.03,-1.45 48.61,1.05 78.74,-3.49 102.64,-15.45 535.11,-15.99 587.23,-45.87 26.46,-15.16 65.78,-57.37 65.78,-98.65l0 -2269.3c0,-86.01 -58.7,-123.96 -147.69,-123.64l-378.52 0.31 0 -485.1c0,-79.72 -64.59,-141.41 -152.5,-128.44 -94.29,13.9 -171.54,21.32 -257.98,38.63 -160.46,32.13 -309.89,77 -450.48,133.28 -184.17,73.73 -235.34,102.46 -389.19,194.58 -189.45,113.44 -285.64,234.8 -328.49,263.5 -27.79,-18.61 -47.28,-43.04 -71.94,-67.84 -261.81,-263.38 -736.5,-445.8 -1089.34,-522.18 -88.02,-19.05 -162.69,-24.36 -257.76,-38.64 -92.25,-13.86 -159.6,40.1 -159.6,127.11zm2606.4 910.19c0,-180.44 -215.72,-113.58 -311.51,-81.29 -59.92,20.2 -103.81,42.38 -159.89,70.33 -48.05,23.95 -106.46,53.67 -139.54,90.67 -43.34,48.47 -29.72,128.09 9.89,167.8 44.32,44.44 106.92,45.51 162,12.33 296.91,-178.88 439.05,-98.51 439.05,-259.84zm-2055.52 -36.43c0,160.48 100.27,120.59 283.16,193.72 132.06,52.81 225.28,163.08 317.89,70.23 41.25,-41.36 48.75,-109 12.51,-162.19 -53.17,-78.03 -361.19,-208.65 -506.67,-208.65 -50.42,0 -106.89,56.47 -106.89,106.89zm0 715.32c0,60.71 33.18,100.14 79.59,117.75 76.68,29.08 152.97,27.73 286.94,107.71 36,21.5 94.36,62.32 143.24,62.32 100.49,0 195.91,-155.29 46.94,-244.28 -96.19,-57.46 -556.71,-314.29 -556.71,-43.5zm1422.42 176.21c0,89.94 91.59,168.13 194.07,111.85 89.37,-49.09 174.77,-102.61 274.44,-128.44 64.66,-16.76 164.59,-24.26 164.59,-139.63 0,-230.73 -334.41,-71.49 -422.07,-27.41 -87.49,43.98 -211.03,88.86 -211.03,183.63zm-514.83 -997.13l0 2115.73c-349.48,-304.92 -740.01,-527.75 -1199.15,-613.36 0,-707.54 0,-1415.08 0,-2122.62 546.98,90.87 929.28,311.33 1199.15,620.25zm240.35 3.37l0 2115.72c349.48,-304.91 740.01,-527.74 1199.14,-613.35 0,-707.54 0,-1415.08 0,-2122.62 -546.98,90.86 -929.27,311.32 -1199.14,620.25zm-1698.82 -30.09l-286.62 0 0 1984.74c480.11,0.07 852.85,67.67 1301.16,147.22 -361.99,-325.58 -997.12,-287.54 -1009.06,-514.56 -4.51,-85.61 -5.48,-1617.4 -5.48,-1617.4zm3157.28 -1.33l286.62 0 0 1984.73c-480.11,0.08 -991.83,136.7 -1440.14,216.25 752.27,-441.06 1121.27,-356.39 1148.04,-583.58 4.51,-85.61 5.48,-1617.4 5.48,-1617.4z"/>
 </g>
</svg>
