<?xml version="1.0" encoding="UTF-8"?>
<!DOCTYPE svg PUBLIC "-//W3C//DTD SVG 1.1//EN" "http://www.w3.org/Graphics/SVG/1.1/DTD/svg11.dtd">
<!-- Creator: CorelDRAW 2021 (64-Bit) -->
<svg xmlns="http://www.w3.org/2000/svg" xml:space="preserve" width="110mm" height="40mm" version="1.1" style="shape-rendering:geometricPrecision; text-rendering:geometricPrecision; image-rendering:optimizeQuality; fill-rule:evenodd; clip-rule:evenodd"
viewBox="0 0 11000 4000"
 xmlns:xlink="http://www.w3.org/1999/xlink"
 xmlns:xodm="http://www.corel.com/coreldraw/odm/2003">
 <defs>
  <style type="text/css">
   <![CDATA[
    .fil1 {fill:#2B2A29}
    .fil0 {fill:#FEFEFE;fill-rule:nonzero}
   ]]>
  </style>
   <clipPath id="id0">
    <rect x="-14248.27" y="-3769.75" width="6858" height="2506.12"/>
   </clipPath>
 </defs>
 <g id="Layer_x0020_1">
  <metadata id="CorelCorpID_0Corel-Layer"/>
  <g id="_328461216">
   <polygon class="fil0" points="5098.28,2742.73 5098.28,2742.73 5000.81,2737.6 4908.48,2732.47 4826.4,2722.21 4754.58,2706.83 4734.07,2696.56 4723.8,2681.17 4723.8,2665.79 4723.8,2527.28 4723.8,2511.89 4734.07,2501.63 4744.32,2491.37 4754.58,2491.37 4759.71,2491.37 4795.62,2496.5 4836.66,2496.5 4882.83,2501.63 4934.13,2506.76 4985.42,2506.76 5031.59,2511.89 5072.63,2511.89 5103.42,2511.89 5164.97,2506.76 5211.14,2501.63 5252.18,2486.24 5282.95,2465.72 5303.48,2440.07 5318.87,2414.42 5323.99,2378.52 5329.12,2337.48 5318.87,2286.17 5308.6,2265.66 5293.22,2245.13 5272.69,2219.49 5241.91,2198.97 5206.01,2173.32 5164.97,2147.68 4908.48,1993.78 4846.92,1952.74 4795.62,1911.7 4759.71,1870.66 4728.93,1829.62 4703.28,1783.45 4693.03,1737.29 4682.76,1691.12 4682.76,1639.82 4687.89,1562.88 4703.28,1491.06 4739.19,1429.49 4785.36,1378.2 4852.05,1332.02 4934.13,1301.25 4985.42,1285.86 5036.72,1280.73 5098.28,1270.47 5164.97,1270.47 5267.56,1275.6 5375.3,1285.86 5421.46,1291 5467.63,1296.12 5508.67,1301.25 5534.32,1306.39 5559.96,1321.77 5565.1,1332.02 5570.22,1342.29 5570.22,1485.92 5559.96,1511.57 5549.71,1521.84 5539.44,1521.84 5534.32,1521.84 5344.51,1506.45 5149.58,1501.31 5103.42,1506.45 5062.38,1511.57 5026.46,1521.84 4995.68,1537.23 4975.17,1557.74 4959.77,1583.39 4949.52,1609.04 4949.52,1639.82 4954.64,1685.99 4964.91,1706.51 4980.3,1721.9 5000.81,1742.41 5031.59,1768.07 5062.38,1788.58 5108.54,1814.23 5339.38,1942.48 5411.2,1983.52 5472.75,2029.68 5518.93,2075.85 5554.83,2127.15 5580.48,2178.45 5595.87,2224.62 5606.14,2281.05 5611.26,2337.48 5601,2409.29 5585.61,2481.11 5549.71,2547.8 5498.4,2609.36 5431.72,2665.79 5390.68,2686.3 5344.51,2706.83 5293.22,2722.21 5231.65,2732.47 5170.1,2737.6 5098.28,2742.73 "/>
   <path class="fil0" d="M6375.61 2245.13l0 0 -123.12 0 -61.55 5.14 -46.18 5.13 -35.9 15.39 -30.78 15.38 -15.39 25.66 -15.39 25.65 -5.14 35.9 -5.12 35.91 0 10.27 5.12 30.77 5.14 25.66 10.25 20.51 15.39 15.39 41.04 20.51 61.57 5.14 56.43 -5.14 51.29 -10.25 51.3 -15.39 41.04 -20.52 0 -241.11 0 0zm220.58 482.21l0 0 -169.29 0 -15.39 -5.13 -10.26 -5.13 -10.25 -15.39 0 -15.39 0 -30.78 -66.69 35.92 -71.82 25.64 -66.69 20.52 -66.68 5.13 -61.57 -5.13 -61.55 -10.26 -56.43 -20.51 -51.3 -30.78 -41.03 -41.04 -35.92 -56.43 -20.51 -71.82 -10.26 -87.2 0 -10.27 10.26 -76.95 15.39 -66.68 35.9 -56.43 51.31 -51.3 61.55 -35.9 82.08 -25.66 97.47 -15.38 117.98 -5.14 123.12 0 0 -87.21 0 -41.03 -10.26 -35.91 -15.39 -25.65 -15.39 -20.52 -25.65 -15.38 -25.65 -10.27 -35.9 -5.12 -41.04 0 -92.35 0 -87.2 5.12 -76.95 5.13 -35.91 5.14 -25.65 0 -5.13 0 -25.65 -5.14 -10.25 -10.25 -5.14 -15.39 0 -128.25 10.26 -25.65 30.78 -15.39 66.69 -10.26 71.82 -10.26 87.21 -5.13 97.47 -5.12 97.46 5.12 87.21 20.51 71.82 25.66 56.43 41.04 51.29 51.3 30.77 66.68 25.66 71.82 5.13 87.2 0 697.66 -5.13 15.39 -5.13 15.39 -15.39 5.13 -10.26 5.13 0 0z"/>
   <polygon class="fil0" points="7416.97,1424.37 7416.97,1424.37 7329.75,1424.37 7298.97,1424.37 7273.32,1429.49 7252.81,1434.63 7237.42,1444.88 7227.15,1460.27 7222.03,1480.8 7216.9,1506.45 7211.77,1537.23 7211.77,1634.69 7401.57,1634.69 7416.97,1634.69 7427.22,1644.94 7437.48,1655.21 7437.48,1675.72 7437.48,1788.58 7437.48,1803.97 7427.22,1814.23 7416.97,1824.49 7401.57,1824.49 7211.77,1824.49 7211.77,2686.3 7211.77,2701.69 7201.5,2711.95 7191.25,2722.21 7175.86,2727.34 7001.44,2727.34 6986.05,2722.21 6970.66,2711.95 6965.54,2701.69 6960.41,2686.3 6960.41,1824.49 6785.99,1798.84 6760.35,1788.58 6750.09,1778.33 6750.09,1762.94 6750.09,1675.72 6750.09,1655.21 6760.35,1644.94 6770.6,1634.69 6785.99,1634.69 6960.41,1634.69 6960.41,1537.23 6965.54,1455.15 6986.05,1383.33 7011.7,1332.02 7052.74,1291 7098.91,1260.21 7160.47,1244.82 7222.03,1234.57 7293.85,1229.43 7355.4,1234.57 7411.83,1244.82 7432.35,1255.08 7442.61,1265.35 7442.61,1275.6 7442.61,1388.45 7442.61,1403.84 7437.48,1414.1 7416.97,1424.37 "/>
   <path class="fil0" d="M8206.96 2080.99l0 0 -5.13 -51.31 -10.26 -51.29 -15.39 -41.04 -25.65 -35.91 -30.78 -25.66 -35.92 -20.51 -41.04 -10.26 -41.02 -5.13 -41.04 5.13 -41.04 10.26 -35.92 20.51 -30.78 25.66 -25.65 35.91 -15.39 41.04 -15.38 46.17 0 56.43 0 5.12 410.39 0 0 -5.12 0 0zm220.57 189.8l0 0 -636.09 0 0 5.13 5.13 41.03 5.12 46.18 15.4 41.03 20.52 35.91 35.91 30.78 35.9 25.65 51.31 20.51 66.68 5.14 102.59 -5.14 97.47 -5.12 82.08 -5.13 71.82 -5.13 5.12 0 25.65 10.26 10.27 5.12 0 15.39 0 128.25 0 20.52 -5.13 10.27 -15.39 10.25 -20.52 5.14 -87.21 15.38 -82.08 10.26 -41.04 5.13 -51.29 5.13 -51.3 0 -61.56 0 -76.95 -5.13 -76.95 -20.52 -76.94 -30.78 -76.95 -46.17 -61.56 -61.55 -30.77 -41.04 -20.53 -46.17 -20.51 -46.17 -15.39 -56.43 -10.27 -61.56 0 -71.81 0 -143.64 5.14 -107.73 25.64 -97.46 35.92 -82.08 51.29 -71.81 66.69 -56.43 82.08 -41.04 92.33 -25.65 102.61 -10.25 107.72 10.25 92.34 25.65 76.94 46.16 66.69 56.43 51.3 71.82 35.91 82.08 20.51 97.47 10.27 102.59 0 107.73 -5.14 20.52 -5.13 15.39 -10.26 10.26 -15.39 5.13 0 0z"/>
   <polygon class="fil0" points="9217.53,2727.34 9217.53,2727.34 9150.84,2737.6 9084.15,2742.73 9007.21,2737.6 8945.65,2727.34 8889.22,2711.95 8848.18,2686.3 8817.41,2645.26 8796.88,2593.97 8781.49,2522.15 8776.37,2434.95 8776.37,1824.49 8596.82,1798.84 8566.04,1783.45 8560.92,1773.19 8555.78,1762.94 8555.78,1675.72 8560.92,1655.21 8566.04,1644.94 8581.43,1634.69 8596.82,1634.69 8776.37,1634.69 8776.37,1475.66 8781.49,1460.27 8786.62,1450.02 8817.41,1439.76 8996.94,1403.84 9002.08,1403.84 9027.72,1414.1 9037.98,1434.63 9037.98,1634.69 9207.27,1634.69 9222.66,1634.69 9238.05,1644.94 9243.17,1655.21 9248.31,1675.72 9248.31,1788.58 9243.17,1803.97 9238.05,1814.23 9222.66,1824.49 9207.27,1824.49 9037.98,1824.49 9037.98,2434.95 9037.98,2465.72 9037.98,2491.37 9043.11,2511.89 9048.25,2522.15 9068.76,2537.54 9084.15,2542.67 9109.8,2542.67 9212.4,2542.67 9243.17,2547.8 9253.44,2558.05 9253.44,2573.44 9253.44,2691.44 9248.31,2717.08 9232.92,2722.21 9217.53,2727.34 "/>
   <path class="fil0" d="M10335.83 1680.86l0 0 0 -15.39 0 -10.26 -10.26 -10.27 -10.25 -10.25 -15.4 0 -194.93 0 -15.39 0 -10.26 10.25 -10.26 10.27 0 10.26 -210.32 836.16 -20.52 0 -5.13 -5.13 -10.26 -5.13 -5.13 -15.38 -5.14 -20.53 -194.92 -784.86 -15.39 -25.66 -10.26 -10.25 -10.27 0 -194.92 0 -20.53 0 -10.26 10.25 -10.25 20.53 5.12 15.39 256.5 882.33 15.38 51.29 20.52 35.92 20.52 30.77 20.52 20.52 20.52 10.26 25.66 10.26 41.02 5.13 30.79 0 -15.38 56.43 -10.27 35.91 -15.39 25.64 -15.38 20.53 -15.39 20.51 -41.04 15.39 -56.43 5.14 -51.31 0 -56.42 -5.14 -61.56 -5.12 -25.65 0 -25.65 0 0 0 -15.39 0 -15.39 10.26 -5.12 10.25 -5.14 15.39 0 123.12 5.14 10.26 5.12 10.27 30.78 10.25 41.04 10.26 51.3 10.26 61.56 5.13c176.61,0 301.15,2.77 395,-169.29l25.65 -61.55 25.64 -71.82 323.18 -1128.56 0 0z"/>
   <polygon class="fil0" points="3974.84,1798.84 3974.84,1798.84 4200.56,1798.84 4236.47,1803.97 4262.12,1819.37 4282.64,1845.01 4287.76,1875.78 4287.76,2552.93 4441.66,2552.93 4477.58,2558.05 4503.22,2578.58 4523.74,2604.23 4528.87,2635.01 4523.74,2670.91 4503.22,2696.56 4477.58,2711.95 4441.66,2717.08 3974.84,2717.08 3933.82,2711.95 3908.16,2696.56 3887.64,2670.91 3882.51,2635.01 3887.64,2604.23 3908.16,2578.58 3938.94,2558.05 3974.84,2552.93 4123.62,2552.93 4123.62,1957.87 3974.84,1957.87 3933.82,1952.74 3908.16,1937.35 3887.64,1911.7 3882.51,1875.78 3887.64,1845.01 3908.16,1819.37 3938.94,1803.97 3974.84,1798.84 "/>
   <polygon class="fil0" points="4133.88,1383.33 4133.88,1383.33 4215.95,1383.33 4241.6,1388.45 4267.25,1408.98 4282.64,1434.63 4287.76,1465.41 4287.76,1537.23 4282.64,1568 4262.12,1593.65 4236.47,1609.04 4200.56,1614.17 4133.88,1614.17 4097.96,1609.04 4067.19,1593.65 4046.66,1568 4041.53,1537.23 4041.53,1465.41 4046.66,1434.63 4067.19,1403.84 4097.96,1388.45 4133.88,1383.33 "/>
   <g>
    <polygon class="fil0" points="2838.91,2757.86 2838.91,2757.86 2815.5,2757.86 2792.09,2751.47 2768.68,2742.96 2747.4,2732.32 2719.73,2711.04 2696.32,2685.5 2679.3,2655.7 2668.66,2623.78 2664.4,2589.73 2666.53,2555.68 2675.04,2521.63 2689.94,2489.7 2704.84,2468.42 2734.63,2410.96 2760.17,2353.5 2781.45,2293.91 2800.61,2232.19 2813.38,2172.6 2821.89,2110.88 2828.27,2049.17 2828.27,1985.32 2826.14,1923.6 2817.63,1861.88 2804.86,1802.29 2789.96,1740.58 2768.68,1680.99 2745.28,1623.52 2715.48,1566.07 2683.55,1510.73 2670.79,1489.45 2662.28,1466.04 2658.02,1440.5 2655.89,1417.09 2658.02,1393.68 2662.28,1372.4 2668.66,1351.11 2677.17,1331.96 2689.94,1312.81 2702.71,1295.78 2719.73,1280.88 2736.76,1268.11 2760.17,1255.35 2781.45,1246.84 2804.86,1242.58 2830.4,1240.45 2853.81,1242.58 2875.09,1244.7 2896.37,1253.22 2915.53,1261.73 2934.68,1272.37 2951.71,1287.27 2966.61,1304.29 2979.37,1321.32 3024.07,1397.94 3064.5,1476.68 3098.55,1557.55 3126.22,1640.55 3147.5,1723.55 3164.53,1808.68 3175.17,1893.81 3179.43,1978.93 3179.43,2064.07 3173.04,2149.19 3160.27,2234.32 3141.12,2319.45 3115.58,2402.45 3085.78,2485.45 3049.61,2566.32 3009.17,2642.93 2990.02,2674.86 2975.12,2694.01 2960.22,2711.04 2945.32,2723.81 2926.17,2736.57 2904.89,2745.09 2883.61,2753.6 2862.32,2757.86 2838.91,2757.86 2838.91,2757.86 "/>
    <path class="fil0" d="M2830.4 1204.27l0 0 -27.67 2.13 -29.79 6.38 -27.66 10.65 -27.67 14.89 -21.29 17.03 -19.15 17.02 -17.03 21.29 -14.89 23.4 -10.64 23.41 -8.52 23.41 -4.25 25.54 -2.13 27.67 2.13 27.67 6.38 29.79 10.65 27.67 14.89 27.66 31.92 53.21 27.67 55.33 23.41 55.34 19.15 57.46 14.9 57.46 12.77 59.59 6.38 59.59 4.26 59.59 -2.13 59.59 -4.25 59.59 -8.52 59.59 -12.77 57.46 -17.02 59.59 -21.28 57.46 -25.54 55.33 -29.8 53.21 -6.38 12.77 -6.39 8.51 -10.64 19.15 -8.51 19.16 -8.51 42.56 -4.26 40.44 6.39 40.43 12.77 38.31 21.28 34.05 25.54 31.92 34.05 25.54 27.66 14.9 27.67 8.51 27.67 6.39 27.66 2.13 25.54 -2.13 27.67 -4.26 23.41 -8.51 25.54 -10.64 21.28 -14.9 21.28 -17.03 19.16 -19.15 17.02 -23.41 19.15 -31.92 42.57 -80.87 38.31 -83 29.79 -83 25.54 -87.26 19.15 -85.13 12.77 -89.38 6.39 -87.26 0 -87.26 -4.26 -89.38 -10.64 -87.26 -17.03 -87.25 -21.28 -85.13 -29.79 -85.13 -34.05 -83 -40.44 -80.87 -46.82 -78.74 -17.03 -21.29 -17.02 -21.28 -21.28 -14.9 -23.41 -14.89 -23.41 -10.64 -23.41 -8.51 -27.67 -4.26 -25.54 -2.13 0 0zm0 70.23l0 0 19.15 2.13 17.03 2.13 31.92 12.77 27.67 21.28 23.41 27.66 44.69 74.49 38.31 76.62 31.92 78.74 27.67 78.75 21.28 80.86 17.03 83 8.51 83 6.38 83 -2.12 83 -6.39 85.13 -12.77 80.87 -17.02 83 -23.41 80.88 -29.8 80.87 -36.18 76.61 -40.43 76.62 -17.03 31.92 -23.41 27.67 -27.67 21.28 -17.02 6.38 -17.03 6.39 -17.02 2.13 -19.16 2.13 -19.15 -2.13 -19.15 -4.26 -17.03 -6.38 -17.03 -8.52 -23.41 -17.02 -17.02 -21.28 -14.9 -23.41 -8.51 -25.54 -4.26 -25.54 2.13 -27.67 6.38 -27.66 12.77 -25.54 14.9 -23.41 31.92 -59.59 25.54 -59.59 23.41 -61.72 19.16 -61.72 12.77 -63.84 10.64 -63.85 4.25 -65.97 2.13 -63.85 -4.25 -63.84 -8.52 -63.85 -12.77 -63.85 -14.89 -63.85 -21.29 -61.71 -25.53 -59.59 -29.8 -59.59 -34.05 -57.46 -10.64 -17.03 -6.39 -19.15 -4.25 -19.15 0 -19.16 0 -19.15 4.25 -17.03 12.77 -31.92 19.16 -29.8 27.66 -21.28 17.03 -10.64 19.15 -6.39 19.16 -4.25 19.15 -2.13 0 0z"/>
    <polygon class="fil0" points="1906.76,3279.27 1906.76,3279.27 1823.76,3275.01 1740.76,3266.5 1657.76,3253.72 1576.89,3234.57 1496.02,3211.16 1419.41,3181.37 1342.79,3145.19 1268.3,3106.88 1189.56,3055.8 1115.07,3000.47 1042.71,2940.88 976.74,2874.91 917.15,2804.68 861.82,2730.19 810.74,2651.45 766.04,2568.45 757.53,2551.42 753.28,2530.14 749.02,2510.98 749.02,2491.83 751.15,2466.29 755.41,2442.89 763.92,2419.47 774.56,2398.19 789.45,2379.04 804.35,2359.89 825.63,2344.99 846.92,2334.34 863.94,2325.83 885.23,2319.45 904.38,2317.32 923.53,2315.19 949.07,2317.32 972.48,2321.57 995.89,2330.09 1017.18,2342.86 1036.33,2355.63 1053.35,2372.65 1070.38,2391.81 1083.15,2413.09 1112.94,2472.68 1151.25,2530.14 1189.56,2583.34 1234.25,2634.42 1283.2,2681.24 1334.27,2725.93 1389.61,2766.37 1447.07,2802.55 1500.27,2830.22 1555.61,2855.75 1610.94,2877.04 1668.4,2894.06 1727.99,2908.96 1785.45,2919.6 1847.17,2923.86 1906.76,2925.98 1964.22,2923.86 1974.86,2923.86 2008.91,2928.11 2040.84,2936.63 2070.64,2951.52 2096.17,2972.8 2117.46,2996.22 2134.48,3023.88 2145.12,3055.8 2151.5,3087.73 2149.38,3123.91 2140.86,3157.96 2125.97,3187.75 2106.81,3215.42 2083.4,3238.83 2053.61,3257.98 2021.68,3270.75 1987.64,3275.01 1906.76,3279.27 1906.76,3279.27 "/>
    <path class="fil0" d="M923.53 2281.14l0 0 -23.41 0 -23.41 4.26 -23.41 6.38 -23.41 10.64 -25.54 14.9 -23.41 19.15 -19.15 21.28 -17.02 23.41 -14.9 25.54 -8.52 27.67 -6.38 27.67 -2.13 29.79 2.13 23.41 2.13 23.41 8.51 23.41 8.51 23.41 46.82 85.13 51.08 80.87 57.46 76.62 61.72 70.23 68.1 68.1 72.36 61.72 78.75 57.46 80.86 51.08 76.62 40.43 78.75 36.18 78.74 29.8 83 25.53 83 19.16 85.12 14.9 85.14 8.51 85.12 2.12 40.44 0 40.44 -2.12 23.41 -2.13 19.15 -4.26 40.44 -14.89 34.04 -23.41 29.8 -25.54 23.41 -34.05 17.02 -36.18 8.52 -40.44 2.13 -21.28 0 -21.28 -6.39 -40.44 -12.77 -38.31 -21.28 -34.05 -25.54 -27.66 -29.79 -25.54 -36.18 -17.03 -38.31 -10.64 -40.44 -4.26 -6.38 0 -6.39 0 -27.66 2.13 -27.67 0 -57.46 -2.13 -59.59 -6.38 -55.33 -8.51 -57.46 -12.77 -55.34 -19.16 -53.2 -19.15 -53.21 -23.41 -51.08 -29.79 -55.33 -34.06 -53.2 -38.3 -48.95 -42.57 -46.82 -44.69 -40.44 -48.95 -40.43 -51.08 -34.06 -55.33 -31.92 -57.46 -14.9 -25.54 -19.15 -23.41 -21.28 -21.28 -23.41 -17.03 -25.54 -12.77 -27.66 -10.64 -27.67 -4.25 -29.8 -2.13 0 0zm0 68.1l0 0 21.29 2.13 19.15 4.26 17.03 6.38 17.02 8.51 17.02 12.77 12.78 12.77 12.77 14.9 10.64 19.15 31.92 61.72 38.3 59.59 42.57 55.33 44.69 51.08 51.08 48.95 51.07 46.82 57.47 40.44 59.59 38.3 55.33 29.8 57.46 25.54 59.59 23.41 59.59 17.02 59.59 14.9 61.72 10.64 61.71 6.39 63.85 2.12 59.59 -2.12 8.51 0 27.67 2.12 25.54 8.52 23.41 10.64 19.16 17.02 17.02 19.16 14.9 21.28 8.51 25.53 4.25 27.67 -2.12 27.67 -4.26 27.66 -12.77 23.42 -14.9 21.28 -19.15 19.15 -23.41 14.9 -25.54 10.64 -27.67 4.26 -40.43 2.13 -38.31 0 -80.87 -2.13 -80.87 -8.51 -80.87 -12.77 -76.62 -19.16 -78.74 -23.41 -76.62 -27.66 -74.49 -34.06 -70.23 -38.3 -78.74 -48.95 -72.36 -53.21 -68.1 -59.59 -65.97 -63.84 -57.46 -68.11 -55.34 -72.35 -48.95 -76.62 -42.56 -80.87 -10.64 -29.8 -4.26 -31.92 2.13 -21.28 4.25 -19.15 6.39 -17.03 8.51 -17.03 10.65 -14.89 12.77 -14.9 17.02 -12.77 17.03 -8.51 29.79 -12.77 31.92 -4.26 0 0z"/>
    <polygon class="fil0" points="942.69,1659.7 942.69,1659.7 921.41,1659.7 900.12,1655.45 878.84,1649.07 859.69,1638.42 838.41,1625.66 821.38,1610.76 804.35,1593.73 791.59,1574.58 780.94,1553.29 774.56,1532.01 768.18,1508.6 766.04,1485.19 768.18,1463.91 772.43,1440.5 778.82,1419.22 787.33,1400.06 806.48,1368.14 851.18,1297.91 900.12,1229.81 953.33,1165.96 1010.79,1104.25 1070.38,1048.91 1134.23,995.71 1202.33,948.88 1272.56,904.19 1344.92,865.88 1419.41,831.84 1496.02,802.04 1576.89,778.63 1655.64,759.47 1738.64,744.58 1821.64,736.06 1906.76,733.94 1968.48,733.94 2002.53,740.32 2034.46,750.96 2064.25,770.12 2089.79,793.53 2111.07,821.2 2123.84,850.99 2132.35,885.04 2134.48,919.09 2130.22,953.14 2119.58,985.06 2102.56,1014.86 2081.27,1038.27 2055.74,1059.55 2025.94,1074.45 1994.02,1082.96 1959.97,1087.22 1951.46,1085.09 1908.89,1085.09 1847.17,1087.22 1785.45,1093.6 1725.86,1104.25 1668.4,1117.02 1610.94,1134.04 1555.61,1155.32 1500.27,1180.86 1447.07,1208.53 1396,1240.45 1349.17,1274.5 1302.35,1312.81 1257.66,1353.25 1217.23,1395.81 1178.92,1442.63 1142.74,1493.7 1110.82,1544.78 1098.04,1568.19 1085.27,1587.35 1070.38,1606.5 1051.23,1621.4 1034.2,1636.29 1012.92,1646.93 989.51,1653.32 966.1,1657.58 942.69,1659.7 942.69,1659.7 "/>
    <path class="fil0" d="M1906.76 699.89l0 0 -87.26 2.13 -85.12 8.51 -85.13 14.9 -83 19.15 -80.87 25.54 -78.74 27.66 -76.62 36.18 -74.49 38.31 -72.36 44.69 -68.1 48.95 -65.97 53.21 -61.72 59.58 -59.59 61.73 -55.34 65.97 -48.94 70.23 -46.82 74.48 -19.16 31.93 -10.64 25.54 -8.51 25.53 -4.26 25.55 -2.12 25.53 2.12 27.67 4.26 27.66 10.64 25.55 12.77 25.53 14.9 23.41 19.15 21.28 21.28 17.03 25.54 17.03 23.41 10.64 25.54 8.51 25.54 4.26 25.54 0 27.66 0 27.67 -6.39 27.67 -8.51 23.41 -12.77 23.41 -14.9 21.28 -19.15 19.15 -21.28 14.9 -25.54 12.77 -23.41 31.92 -48.95 34.06 -48.95 38.3 -44.69 38.31 -42.56 42.56 -38.31 44.69 -36.18 46.82 -34.06 48.96 -29.79 51.07 -27.66 51.08 -23.41 53.2 -19.16 55.34 -17.03 55.33 -12.77 57.46 -10.64 59.59 -6.38 59.59 0 40.44 0 10.64 0 40.43 -4.25 38.31 -10.65 36.18 -19.15 29.79 -23.41 25.54 -29.79 21.28 -34.06 12.77 -38.31 6.39 -40.43 0 -21.28 -2.13 -21.29 -10.64 -40.43 -19.15 -36.18 -23.42 -34.05 -29.79 -25.54 -34.05 -21.28 -38.31 -14.9 -21.28 -4.25 -21.28 -2.13 -31.93 0 -31.92 0 0 0zm0 70.23l0 0 59.59 0 27.67 4.25 25.54 8.51 23.41 14.9 21.28 19.16 14.9 21.28 12.76 25.54 6.39 25.54 2.13 27.66 -4.26 27.67 -8.51 25.54 -12.77 23.41 -17.03 19.15 -21.28 17.03 -23.41 12.77 -25.53 6.38 -27.67 4.26 -6.39 -2.13 -23.41 0 -21.28 -2.13 -63.84 4.26 -61.72 4.26 -61.72 10.63 -61.72 14.9 -59.59 17.03 -57.46 21.28 -57.46 25.54 -55.34 29.79 -53.2 34.06 -51.08 36.18 -46.82 38.3 -46.82 44.7 -42.56 44.69 -40.44 48.94 -36.18 51.08 -31.92 53.21 -14.9 23.41 -10.64 17.02 -10.64 12.77 -14.9 12.77 -14.9 10.64 -17.02 10.64 -17.02 4.26 -19.16 4.25 -19.15 2.14 -17.03 -2.14 -17.03 -2.12 -31.92 -12.77 -17.02 -10.64 -14.9 -12.77 -12.77 -12.77 -10.64 -17.03 -8.51 -14.9 -6.39 -19.15 -4.26 -17.02 0 -19.16 0 -19.15 4.26 -14.9 6.39 -17.03 6.38 -17.02 19.16 -29.8 42.56 -70.23 46.82 -65.97 51.07 -61.72 55.34 -59.59 59.59 -55.33 61.72 -51.08 65.97 -46.82 68.1 -42.56 70.24 -38.31 74.48 -34.05 76.62 -27.67 76.61 -23.41 78.74 -17.02 78.75 -12.77 80.87 -8.52 80.87 -2.12 0 0z"/>
    <polygon class="fil0" points="2323.89,980.81 2323.89,980.81 2311.12,1008.47 2304.73,1038.27 2304.73,1068.06 2308.99,1095.73 2319.63,1123.4 2334.53,1148.94 2355.81,1172.35 2381.35,1189.37 2409.02,1202.14 2436.68,1208.53 2468.61,1208.53 2496.27,1204.27 2523.94,1193.63 2549.48,1178.73 2570.76,1159.58 2589.91,1134.04 2602.68,1106.37 2606.94,1076.58 2609.07,1046.78 2604.81,1019.12 2594.17,991.45 2579.27,965.91 2557.99,944.63 2532.45,925.47 2504.79,912.71 2474.99,906.32 2445.2,906.32 2417.53,910.58 2389.87,921.22 2364.32,936.12 2343.04,957.4 2323.89,980.81 "/>
    <polygon class="fil0" points="2338.79,2870.65 2338.79,2870.65 2326.02,2898.32 2319.63,2928.11 2317.5,2957.9 2323.89,2985.57 2332.4,3013.24 2349.43,3038.78 2368.58,3060.06 2394.12,3079.21 2421.79,3091.98 2451.58,3098.37 2481.38,3098.37 2509.04,3094.11 2536.71,3083.47 2562.25,3068.57 2583.53,3047.29 2602.68,3023.88 2615.45,2994.09 2621.84,2966.42 2621.84,2936.63 2617.58,2906.83 2606.94,2879.16 2592.04,2855.75 2572.89,2832.34 2547.35,2815.32 2519.68,2802.55 2489.89,2796.16 2460.09,2794.04 2432.43,2800.42 2404.76,2811.06 2379.22,2825.96 2355.81,2845.11 2338.79,2870.65 "/>
    <polygon class="fil0" points="678.79,1908.7 678.79,1908.7 666.02,1936.37 659.63,1966.17 657.51,1995.96 663.89,2025.75 674.53,2051.29 689.43,2076.83 710.71,2100.24 734.12,2117.27 763.92,2130.04 791.59,2136.42 821.38,2138.55 851.18,2132.17 876.71,2123.65 902.25,2106.63 925.66,2087.48 942.69,2061.93 955.45,2034.27 961.84,2004.48 963.97,1974.68 959.71,1947.01 949.07,1919.34 934.18,1893.81 912.89,1872.52 887.35,1853.37 859.69,1840.6 829.89,1834.22 800.1,1834.22 772.43,1838.47 744.77,1849.11 719.22,1864.01 697.94,1883.17 678.79,1908.7 "/>
   </g>
  </g>
  <g style="clip-path:url(#id0)">
   <image x="-14248.27" y="-3769.75" width="6858" height="2506.12" xlink:href="_logo_isafety_full_Images\_logo_isafety_full_ImgID1.png"/>
  </g>
  <path class="fil1" d="M-10279.37 -5126.91c-84.56,66.13 -191.02,105.56 -306.7,105.56 -275.14,0 -498.28,-223.19 -498.28,-498.33 0,-275.14 223.14,-498.28 498.28,-498.28 115.63,0 222.09,39.43 306.65,105.56 84.57,-66.13 191.03,-105.56 306.65,-105.56 115.63,0 222.09,39.43 306.66,105.56 84.56,-66.13 191.02,-105.56 306.65,-105.56 115.62,0 222.08,39.43 306.65,105.56 84.57,-66.13 191.02,-105.56 306.65,-105.56 48.05,0 94.54,6.82 138.47,19.49 -15.23,-47.74 -23.44,-98.69 -23.44,-151.5 0,-52.8 8.21,-103.7 23.44,-151.44 -43.93,12.67 -90.42,19.49 -138.47,19.49 -115.63,0 -222.08,-39.43 -306.6,-105.56 -84.57,66.13 -191.03,105.56 -306.7,105.56 -115.63,0 -222.09,-39.43 -306.6,-105.56 -84.57,66.13 -191.03,105.56 -306.71,105.56 -275.14,0 -498.27,-223.19 -498.27,-498.33 0,-45.09 6.01,-88.78 17.23,-130.31 -41.58,11.22 -85.27,17.24 -130.36,17.24 -275.14,0 -498.27,-223.19 -498.27,-498.33 0,-275.14 223.13,-498.28 498.27,-498.28 37.38,0 73.8,4.11 108.82,11.92 -7.82,-35.02 -11.93,-71.44 -11.93,-108.81 0,-275.14 223.14,-498.28 498.28,-498.28 115.63,0 222.09,39.43 306.65,105.56 84.57,-66.13 191.03,-105.56 306.66,-105.56 115.62,0 222.08,39.43 306.65,105.56 84.56,-66.13 191.02,-105.56 306.65,-105.56 115.63,0 222.09,39.43 306.65,105.56 84.57,-66.13 191.03,-105.56 306.65,-105.56 115.63,0 222.09,39.43 306.66,105.56 84.56,-66.13 191.02,-105.56 306.65,-105.56 275.14,0 498.33,223.14 498.33,498.28 0,275.19 -223.14,498.33 -498.33,498.33 -115.63,0 -222.09,-39.43 -306.6,-105.56 -84.57,66.13 -191.03,105.56 -306.71,105.56 -115.62,0 -222.08,-39.43 -306.6,-105.56 -84.56,66.13 -191.02,105.56 -306.7,105.56 -115.63,0 -222.09,-39.43 -306.6,-105.56 -84.57,66.13 -191.03,105.56 -306.7,105.56 -37.38,0 -73.75,-4.11 -108.77,-11.93 7.82,35.02 11.93,71.39 11.93,108.77 0,45.09 -6.02,88.77 -17.24,130.35 41.53,-11.22 85.22,-17.23 130.31,-17.23 115.62,0 222.08,39.43 306.65,105.56 84.57,-66.13 191.02,-105.56 306.65,-105.56 115.63,0 222.09,39.43 306.65,105.56 84.57,-66.13 191.03,-105.56 306.66,-105.56 275.14,0 498.32,223.14 498.32,498.28 0,52.8 -8.21,103.7 -23.44,151.49 43.93,-12.67 90.38,-19.48 138.42,-19.48 275.14,0 498.33,223.13 498.33,498.27 0,275.19 -223.14,498.33 -498.33,498.33 -48.04,0 -94.49,-6.81 -138.42,-19.49 15.23,47.75 23.44,98.65 23.44,151.45 0,275.19 -223.13,498.33 -498.32,498.33 -115.63,0 -222.09,-39.43 -306.61,-105.56 -84.56,66.13 -191.02,105.56 -306.7,105.56 -115.63,0 -222.08,-39.43 -306.6,-105.56 -84.57,66.13 -191.03,105.56 -306.7,105.56 -115.63,0 -222.09,-39.43 -306.6,-105.56 -84.57,66.13 -191.03,105.56 -306.71,105.56 -115.62,0 -222.08,-39.43 -306.6,-105.56zm-306.7 -670.61c153.5,0 277.9,124.39 277.9,277.84 0,153.5 -124.4,277.9 -277.9,277.9 -153.45,0 -277.85,-124.4 -277.85,-277.9 0,-153.45 124.4,-277.84 277.85,-277.84zm3050.29 -2467.15c153.5,0 277.89,124.4 277.89,277.85 0,153.5 -124.39,277.89 -277.89,277.89 -153.45,0 -277.85,-124.39 -277.85,-277.89 0,-153.45 124.4,-277.85 277.85,-277.85zm-613.31 0c153.51,0 277.9,124.4 277.9,277.85 0,153.5 -124.39,277.89 -277.9,277.89 -153.45,0 -277.84,-124.39 -277.84,-277.89 0,-153.45 124.39,-277.85 277.84,-277.85zm-613.3 0c153.5,0 277.9,124.4 277.9,277.85 0,153.5 -124.4,277.89 -277.9,277.89 -153.45,0 -277.85,-124.39 -277.85,-277.89 0,-153.45 124.4,-277.85 277.85,-277.85zm-613.3 0c153.5,0 277.89,124.4 277.89,277.85 0,153.5 -124.39,277.89 -277.89,277.89 -153.46,0 -277.85,-124.39 -277.85,-277.89 0,-153.45 124.39,-277.85 277.85,-277.85zm-613.31 0c153.5,0 277.9,124.4 277.9,277.85 0,153.5 -124.4,277.89 -277.9,277.89 -153.45,0 -277.84,-124.39 -277.84,-277.89 0,-153.45 124.39,-277.85 277.84,-277.85zm18.14 595.17c153.5,0 277.89,124.4 277.89,277.85 0,153.5 -124.39,277.89 -277.89,277.89 -153.45,0 -277.85,-124.39 -277.85,-277.89 0,-153.45 124.4,-277.85 277.85,-277.85zm-613.31 0c153.5,0 277.9,124.4 277.9,277.85 0,153.5 -124.4,277.89 -277.9,277.89 -153.45,0 -277.84,-124.39 -277.84,-277.89 0,-153.45 124.39,-277.85 277.84,-277.85zm2451.32 611.4c153.5,0 277.89,124.4 277.89,277.85 0,153.5 -124.39,277.89 -277.89,277.89 -153.46,0 -277.85,-124.39 -277.85,-277.89 0,-153.45 124.39,-277.85 277.85,-277.85zm-613.31 0c153.5,0 277.9,124.4 277.9,277.85 0,153.5 -124.4,277.89 -277.9,277.89 -153.45,0 -277.84,-124.39 -277.84,-277.89 0,-153.45 124.39,-277.85 277.84,-277.85zm-613.3 0c153.5,0 277.89,124.4 277.89,277.85 0,153.5 -124.39,277.89 -277.89,277.89 -153.45,0 -277.85,-124.39 -277.85,-277.89 0,-153.45 124.4,-277.85 277.85,-277.85zm-613.31 0c153.51,0 277.9,124.4 277.9,277.85 0,153.5 -124.39,277.89 -277.9,277.89 -153.45,0 -277.84,-124.39 -277.84,-277.89 0,-153.45 124.39,-277.85 277.84,-277.85zm2453.22 630.29c153.5,0 277.9,124.39 277.9,277.84 0,153.51 -124.4,277.9 -277.9,277.9 -153.45,0 -277.85,-124.39 -277.85,-277.9 0,-153.45 124.4,-277.84 277.85,-277.84zm-613.3 0c153.5,0 277.89,124.39 277.89,277.84 0,153.51 -124.39,277.9 -277.89,277.9 -153.46,0 -277.85,-124.39 -277.85,-277.9 0,-153.45 124.39,-277.84 277.85,-277.84zm0 630.29c153.5,0 277.89,124.39 277.89,277.84 0,153.5 -124.39,277.9 -277.89,277.9 -153.46,0 -277.85,-124.4 -277.85,-277.9 0,-153.45 124.39,-277.84 277.85,-277.84zm-613.31 0c153.5,0 277.9,124.39 277.9,277.84 0,153.5 -124.4,277.9 -277.9,277.9 -153.45,0 -277.84,-124.4 -277.84,-277.9 0,-153.45 124.39,-277.84 277.84,-277.84zm-613.3 0c153.5,0 277.89,124.39 277.89,277.84 0,153.5 -124.39,277.9 -277.89,277.9 -153.45,0 -277.85,-124.4 -277.85,-277.9 0,-153.45 124.4,-277.84 277.85,-277.84zm-613.31 0c153.51,0 277.9,124.39 277.9,277.84 0,153.5 -124.39,277.9 -277.9,277.9 -153.45,0 -277.84,-124.4 -277.84,-277.9 0,-153.45 124.39,-277.84 277.84,-277.84z"/>
 </g>
</svg>
