<?xml version="1.0" encoding="UTF-8"?>
<!DOCTYPE svg  PUBLIC '-//W3C//DTD SVG 1.1//EN'  'http://www.w3.org/Graphics/SVG/1.1/DTD/svg11.dtd'>
<svg width="40mm" height="40mm" clip-rule="evenodd" fill-rule="evenodd" image-rendering="optimizeQuality" shape-rendering="geometricPrecision" text-rendering="geometricPrecision" version="1.1" viewBox="0 0 4e3 4e3" xml:space="preserve" xmlns="http://www.w3.org/2000/svg">
 <defs>
  <style type="text/css">
   <![CDATA[
    .fil0 {fill:#FEFEFE;fill-rule:nonzero}
   ]]>
  </style>
 </defs>
 
  
  
   <polygon class="fil0" points="2900.1 2757.9 2900.1 2757.9 2876.7 2757.9 2853.3 2751.5 2829.8 2743 2808.6 2732.3 2780.9 2711 2757.5 2685.5 2740.5 2655.7 2729.8 2623.8 2725.6 2589.7 2727.7 2555.7 2736.2 2521.6 2751.1 2489.7 2766 2468.4 2795.8 2411 2821.3 2353.5 2842.6 2293.9 2861.8 2232.2 2874.6 2172.6 2883.1 2110.9 2889.4 2049.2 2889.4 1985.3 2887.3 1923.6 2878.8 1861.9 2866 1802.3 2851.1 1740.6 2829.8 1681 2806.4 1623.5 2776.6 1566.1 2744.7 1510.7 2732 1489.4 2723.4 1466 2719.2 1440.5 2717.1 1417.1 2719.2 1393.7 2723.4 1372.4 2729.8 1351.1 2738.3 1332 2751.1 1312.8 2763.9 1295.8 2780.9 1280.9 2797.9 1268.1 2821.3 1255.4 2842.6 1246.8 2866 1242.6 2891.6 1240.4 2915 1242.6 2936.3 1244.7 2957.5 1253.2 2976.7 1261.7 2995.8 1272.4 3012.9 1287.3 3027.8 1304.3 3040.5 1321.3 3085.2 1397.9 3125.7 1476.7 3159.7 1557.6 3187.4 1640.6 3208.7 1723.6 3225.7 1808.7 3236.3 1893.8 3240.6 1978.9 3240.6 2064.1 3234.2 2149.2 3221.4 2234.3 3202.3 2319.4 3176.8 2402.4 3147 2485.4 3110.8 2566.3 3070.3 2642.9 3051.2 2674.9 3036.3 2694 3021.4 2711 3006.5 2723.8 2987.3 2736.6 2966.1 2745.1 2944.8 2753.6 2923.5 2757.9 2900.1 2757.9"/>
   <path class="fil0" d="m2891.6 1204.3-27.67 2.13-29.79 6.38-27.66 10.65-27.67 14.89-21.29 17.03-19.15 17.02-17.03 21.29-14.89 23.4-10.64 23.41-8.52 23.41-4.25 25.54-2.13 27.67 2.13 27.67 6.38 29.79 10.65 27.67 14.89 27.66 31.92 53.21 27.67 55.33 23.41 55.34 19.15 57.46 14.9 57.46 12.77 59.59 6.38 59.59 4.26 59.59-2.13 59.59-4.25 59.59-8.52 59.59-12.77 57.46-17.02 59.59-21.28 57.46-25.54 55.33-29.8 53.21-6.38 12.77-6.39 8.51-10.64 19.15-8.51 19.16-8.51 42.56-4.26 40.44 6.39 40.43 12.77 38.31 21.28 34.05 25.54 31.92 34.05 25.54 27.66 14.9 27.67 8.51 27.67 6.39 27.66 2.13 25.54-2.13 27.67-4.26 23.41-8.51 25.54-10.64 21.28-14.9 21.28-17.03 19.16-19.15 17.02-23.41 19.15-31.92 42.57-80.87 38.31-83 29.79-83 25.54-87.26 19.15-85.13 12.77-89.38 6.39-87.26v-87.26l-4.26-89.38-10.64-87.26-17.03-87.25-21.28-85.13-29.79-85.13-34.05-83-40.44-80.87-46.82-78.74-17.03-21.29-17.02-21.28-21.28-14.9-23.41-14.89-23.41-10.64-23.41-8.51-27.67-4.26-25.54-2.13zm0 70.23 19.15 2.13 17.03 2.13 31.92 12.77 27.67 21.28 23.41 27.66 44.69 74.49 38.31 76.62 31.92 78.74 27.67 78.75 21.28 80.86 17.03 83 8.51 83 6.38 83-2.12 83-6.39 85.13-12.77 80.87-17.02 83-23.41 80.88-29.8 80.87-36.18 76.61-40.43 76.62-17.03 31.92-23.41 27.67-27.67 21.28-17.02 6.38-17.03 6.39-17.02 2.13-19.16 2.13-19.15-2.13-19.15-4.26-17.03-6.38-17.03-8.52-23.41-17.02-17.02-21.28-14.9-23.41-8.51-25.54-4.26-25.54 2.13-27.67 6.38-27.66 12.77-25.54 14.9-23.41 31.92-59.59 25.54-59.59 23.41-61.72 19.16-61.72 12.77-63.84 10.64-63.85 4.25-65.97 2.13-63.85-4.25-63.84-8.52-63.85-12.77-63.85-14.89-63.85-21.29-61.71-25.53-59.59-29.8-59.59-34.05-57.46-10.64-17.03-6.39-19.15-4.25-19.15v-19.16-19.15l4.25-17.03 12.77-31.92 19.16-29.8 27.66-21.28 17.03-10.64 19.15-6.39 19.16-4.25 19.15-2.13z"/>
   <polygon class="fil0" points="1967.9 3279.3 1967.9 3279.3 1884.9 3275 1801.9 3266.5 1718.9 3253.7 1638.1 3234.6 1557.2 3211.2 1480.6 3181.4 1404 3145.2 1329.5 3106.9 1250.7 3055.8 1176.2 3000.5 1103.9 2940.9 1037.9 2874.9 978.32 2804.7 922.99 2730.2 871.91 2651.4 827.21 2568.4 818.7 2551.4 814.45 2530.1 810.19 2511 810.19 2491.8 812.32 2466.3 816.58 2442.9 825.09 2419.5 835.73 2398.2 850.62 2379 865.52 2359.9 886.8 2345 908.09 2334.3 925.11 2325.8 946.4 2319.4 965.55 2317.3 984.7 2315.2 1010.2 2317.3 1033.6 2321.6 1057.1 2330.1 1078.4 2342.9 1097.5 2355.6 1114.5 2372.6 1131.6 2391.8 1144.3 2413.1 1174.1 2472.7 1212.4 2530.1 1250.7 2583.3 1295.4 2634.4 1344.4 2681.2 1395.4 2725.9 1450.8 2766.4 1508.2 2802.6 1561.4 2830.2 1616.8 2855.8 1672.1 2877 1729.6 2894.1 1789.2 2909 1846.6 2919.6 1908.3 2923.9 1967.9 2926 2025.4 2923.9 2036 2923.9 2070.1 2928.1 2102 2936.6 2131.8 2951.5 2157.3 2972.8 2178.6 2996.2 2195.6 3023.9 2206.3 3055.8 2212.7 3087.7 2210.6 3123.9 2202 3158 2187.1 3187.8 2168 3215.4 2144.6 3238.8 2114.8 3258 2082.8 3270.8 2048.8 3275 1967.9 3279.3"/>
   <path class="fil0" d="m984.7 2281.1h-23.41l-23.41 4.26-23.41 6.38-23.41 10.64-25.54 14.9-23.41 19.15-19.15 21.28-17.02 23.41-14.9 25.54-8.52 27.67-6.38 27.67-2.13 29.79 4.26 46.82 17.02 46.82 46.82 85.13 51.08 80.87 57.46 76.62 61.72 70.23 68.1 68.1 72.36 61.72 78.75 57.46 80.86 51.08 76.62 40.43 78.75 36.18 78.74 29.8 83 25.53 83 19.16 85.12 14.9 85.14 8.51 85.12 2.12h40.44l40.44-2.12 23.41-2.13 19.15-4.26 40.44-14.89 34.04-23.41 29.8-25.54 23.41-34.05 17.02-36.18 8.52-40.44 2.13-21.28v-21.28l-6.39-40.44-12.77-38.31-21.28-34.05-25.54-27.66-29.79-25.54-36.18-17.03-38.31-10.64-40.44-4.26h-6.38-6.39l-27.66 2.13h-27.67l-57.46-2.13-59.59-6.38-55.33-8.51-57.46-12.77-55.34-19.16-53.2-19.15-53.21-23.41-51.08-29.79-55.33-34.06-53.2-38.3-48.95-42.57-46.82-44.69-40.44-48.95-40.43-51.08-34.06-55.33-31.92-57.46-14.9-25.54-19.15-23.41-21.28-21.28-23.41-17.03-25.54-12.77-27.66-10.64-27.67-4.25-29.8-2.13zm0 68.1 21.29 2.13 19.15 4.26 17.03 6.38 17.02 8.51 17.02 12.77 12.78 12.77 12.77 14.9 10.64 19.15 31.92 61.72 38.3 59.59 42.57 55.33 44.69 51.08 51.08 48.95 51.07 46.82 57.47 40.44 59.59 38.3 55.33 29.8 57.46 25.54 59.59 23.41 59.59 17.02 59.59 14.9 61.72 10.64 61.71 6.39 63.85 2.12 59.59-2.12h8.51l27.67 2.12 25.54 8.52 23.41 10.64 19.16 17.02 17.02 19.16 14.9 21.28 8.51 25.53 4.25 27.67-2.12 27.67-4.26 27.66-12.77 23.42-14.9 21.28-19.15 19.15-23.41 14.9-25.54 10.64-27.67 4.26-40.43 2.13h-38.31l-80.87-2.13-80.87-8.51-80.87-12.77-76.62-19.16-78.74-23.41-76.62-27.66-74.49-34.06-70.23-38.3-78.74-48.95-72.36-53.21-68.1-59.59-65.97-63.84-57.46-68.11-55.34-72.35-48.95-76.62-42.56-80.87-10.64-29.8-4.26-31.92 2.13-21.28 4.25-19.15 6.39-17.03 8.51-17.03 10.65-14.89 12.77-14.9 17.02-12.77 17.03-8.51 29.79-12.77 31.92-4.26z"/>
   <polygon class="fil0" points="1003.9 1659.7 1003.9 1659.7 982.58 1659.7 961.29 1655.4 940.01 1649.1 920.86 1638.4 899.58 1625.7 882.55 1610.8 865.52 1593.7 852.76 1574.6 842.11 1553.3 835.73 1532 829.35 1508.6 827.21 1485.2 829.35 1463.9 833.6 1440.5 839.99 1419.2 848.5 1400.1 867.65 1368.1 912.35 1297.9 961.29 1229.8 1014.5 1166 1072 1104.2 1131.6 1048.9 1195.4 995.71 1263.5 948.88 1333.7 904.19 1406.1 865.88 1480.6 831.84 1557.2 802.04 1638.1 778.63 1716.8 759.47 1799.8 744.58 1882.8 736.06 1967.9 733.94 2029.6 733.94 2063.7 740.32 2095.6 750.96 2125.4 770.12 2151 793.53 2172.2 821.2 2185 850.99 2193.5 885.04 2195.6 919.09 2191.4 953.14 2180.8 985.06 2163.7 1014.9 2142.4 1038.3 2116.9 1059.6 2087.1 1074.4 2055.2 1083 2021.1 1087.2 2012.6 1085.1 1970.1 1085.1 1908.3 1087.2 1846.6 1093.6 1787 1104.2 1729.6 1117 1672.1 1134 1616.8 1155.3 1561.4 1180.9 1508.2 1208.5 1457.2 1240.4 1410.3 1274.5 1363.5 1312.8 1318.8 1353.2 1278.4 1395.8 1240.1 1442.6 1203.9 1493.7 1172 1544.8 1159.2 1568.2 1146.4 1587.4 1131.6 1606.5 1112.4 1621.4 1095.4 1636.3 1074.1 1646.9 1050.7 1653.3 1027.3 1657.6 1003.9 1659.7"/>
   <path class="fil0" d="m1967.9 699.89-87.26 2.13-85.12 8.51-85.13 14.9-83 19.15-80.87 25.54-78.74 27.66-76.62 36.18-74.49 38.31-72.36 44.69-68.1 48.95-65.97 53.21-61.72 59.58-59.59 61.73-55.34 65.97-48.94 70.23-46.82 74.48-19.16 31.93-10.64 25.54-8.51 25.53-4.26 25.55-2.12 25.53 2.12 27.67 4.26 27.66 10.64 25.55 12.77 25.53 14.9 23.41 19.15 21.28 21.28 17.03 25.54 17.03 23.41 10.64 25.54 8.51 25.54 4.26h25.54 27.66l27.67-6.39 27.67-8.51 23.41-12.77 23.41-14.9 21.28-19.15 19.15-21.28 14.9-25.54 12.77-23.41 31.92-48.95 34.06-48.95 38.3-44.69 38.31-42.56 42.56-38.31 44.69-36.18 46.82-34.06 48.96-29.79 51.07-27.66 51.08-23.41 53.2-19.16 55.34-17.03 55.33-12.77 57.46-10.64 59.59-6.38h59.59 40.44 10.64l40.43-4.25 38.31-10.65 36.18-19.15 29.79-23.41 25.54-29.79 21.28-34.06 12.77-38.31 6.39-40.43v-21.28l-2.13-21.29-10.64-40.43-19.15-36.18-23.42-34.05-29.79-25.54-34.05-21.28-38.31-14.9-21.28-4.25-21.28-2.13h-31.93-31.92zm0 70.23h59.59l27.67 4.25 25.54 8.51 23.41 14.9 21.28 19.16 14.9 21.28 12.76 25.54 6.39 25.54 2.13 27.66-4.26 27.67-8.51 25.54-12.77 23.41-17.03 19.15-21.28 17.03-23.41 12.77-25.53 6.38-27.67 4.26-6.39-2.13h-23.41l-21.28-2.13-63.84 4.26-61.72 4.26-61.72 10.63-61.72 14.9-59.59 17.03-57.46 21.28-57.46 25.54-55.34 29.79-53.2 34.06-51.08 36.18-46.82 38.3-46.82 44.7-42.56 44.69-40.44 48.94-36.18 51.08-31.92 53.21-14.9 23.41-10.64 17.02-10.64 12.77-14.9 12.77-14.9 10.64-17.02 10.64-17.02 4.26-19.16 4.25-19.15 2.14-17.03-2.14-17.03-2.12-31.92-12.77-17.02-10.64-14.9-12.77-12.77-12.77-10.64-17.03-8.51-14.9-6.39-19.15-4.26-17.02v-19.16-19.15l4.26-14.9 6.39-17.03 6.38-17.02 19.16-29.8 42.56-70.23 46.82-65.97 51.07-61.72 55.34-59.59 59.59-55.33 61.72-51.08 65.97-46.82 68.1-42.56 70.24-38.31 74.48-34.05 76.62-27.67 76.61-23.41 78.74-17.02 78.75-12.77 80.87-8.52 80.87-2.12z"/>
   <polygon class="fil0" points="2385.1 980.81 2385.1 980.81 2372.3 1008.5 2365.9 1038.3 2365.9 1068.1 2370.2 1095.7 2380.8 1123.4 2395.7 1148.9 2417 1172.4 2442.5 1189.4 2470.2 1202.1 2497.8 1208.5 2529.8 1208.5 2557.4 1204.3 2585.1 1193.6 2610.6 1178.7 2631.9 1159.6 2651.1 1134 2663.8 1106.4 2668.1 1076.6 2670.2 1046.8 2666 1019.1 2655.3 991.45 2640.4 965.91 2619.2 944.63 2593.6 925.47 2566 912.71 2536.2 906.32 2506.4 906.32 2478.7 910.58 2451 921.22 2425.5 936.12 2404.2 957.4"/>
   <polygon class="fil0" points="2400 2870.6 2400 2870.6 2387.2 2898.3 2380.8 2928.1 2378.7 2957.9 2385.1 2985.6 2393.6 3013.2 2410.6 3038.8 2429.8 3060.1 2455.3 3079.2 2483 3092 2512.8 3098.4 2542.6 3098.4 2570.2 3094.1 2597.9 3083.5 2623.4 3068.6 2644.7 3047.3 2663.8 3023.9 2676.6 2994.1 2683 2966.4 2683 2936.6 2678.8 2906.8 2668.1 2879.2 2653.2 2855.8 2634.1 2832.3 2608.5 2815.3 2580.8 2802.6 2551.1 2796.2 2521.3 2794 2493.6 2800.4 2465.9 2811.1 2440.4 2826 2417 2845.1"/>
   <polygon class="fil0" points="739.96 1908.7 739.96 1908.7 727.19 1936.4 720.8 1966.2 718.68 1996 725.06 2025.8 735.7 2051.3 750.6 2076.8 771.88 2100.2 795.29 2117.3 825.09 2130 852.76 2136.4 882.55 2138.6 912.35 2132.2 937.88 2123.6 963.42 2106.6 986.83 2087.5 1003.9 2061.9 1016.6 2034.3 1023 2004.5 1025.1 1974.7 1020.9 1947 1010.2 1919.3 995.35 1893.8 974.06 1872.5 948.52 1853.4 920.86 1840.6 891.06 1834.2 861.27 1834.2 833.6 1838.5 805.94 1849.1 780.39 1864 759.11 1883.2"/>
  
 
</svg>