<?xml version="1.0" encoding="UTF-8"?>
<!DOCTYPE svg PUBLIC "-//W3C//DTD SVG 1.1//EN" "http://www.w3.org/Graphics/SVG/1.1/DTD/svg11.dtd">
<!-- Creator: CorelDRAW 2021 (64-Bit) -->
<svg xmlns="http://www.w3.org/2000/svg" xml:space="preserve" width="40mm" height="40mm" version="1.1" style="shape-rendering:geometricPrecision; text-rendering:geometricPrecision; image-rendering:optimizeQuality; fill-rule:evenodd; clip-rule:evenodd"
viewBox="0 0 4000 4000"
 xmlns:xlink="http://www.w3.org/1999/xlink"
 xmlns:xodm="http://www.corel.com/coreldraw/odm/2003">
 <defs>
  <style type="text/css">
   <![CDATA[
    .fil0 {fill:#FEFEFE;fill-rule:nonzero}
   ]]>
  </style>
 </defs>
 <g id="Layer_x0020_1">
  <metadata id="CorelCorpID_0Corel-Layer"/>
  <g id="_1912758016">
   <polygon class="fil0" points="2900.08,2757.86 2900.08,2757.86 2876.67,2757.86 2853.26,2751.47 2829.85,2742.96 2808.57,2732.32 2780.9,2711.04 2757.49,2685.5 2740.47,2655.7 2729.83,2623.78 2725.57,2589.73 2727.7,2555.68 2736.21,2521.63 2751.11,2489.7 2766.01,2468.42 2795.8,2410.96 2821.34,2353.5 2842.62,2293.91 2861.78,2232.19 2874.55,2172.6 2883.06,2110.88 2889.44,2049.17 2889.44,1985.32 2887.31,1923.6 2878.8,1861.88 2866.03,1802.29 2851.13,1740.58 2829.85,1680.99 2806.45,1623.52 2776.65,1566.07 2744.72,1510.73 2731.96,1489.45 2723.45,1466.04 2719.19,1440.5 2717.06,1417.09 2719.19,1393.68 2723.45,1372.4 2729.83,1351.11 2738.34,1331.96 2751.11,1312.81 2763.88,1295.78 2780.9,1280.88 2797.93,1268.11 2821.34,1255.35 2842.62,1246.84 2866.03,1242.58 2891.57,1240.45 2914.98,1242.58 2936.26,1244.7 2957.54,1253.22 2976.7,1261.73 2995.85,1272.37 3012.88,1287.27 3027.78,1304.29 3040.54,1321.32 3085.24,1397.94 3125.67,1476.68 3159.72,1557.55 3187.39,1640.55 3208.67,1723.55 3225.7,1808.68 3236.34,1893.81 3240.6,1978.93 3240.6,2064.07 3234.21,2149.19 3221.44,2234.32 3202.29,2319.45 3176.75,2402.45 3146.95,2485.45 3110.78,2566.32 3070.34,2642.93 3051.19,2674.86 3036.29,2694.01 3021.39,2711.04 3006.49,2723.81 2987.34,2736.57 2966.06,2745.09 2944.78,2753.6 2923.49,2757.86 2900.08,2757.86 2900.08,2757.86 "/>
   <path class="fil0" d="M2891.57 1204.27l0 0 -27.67 2.13 -29.79 6.38 -27.66 10.65 -27.67 14.89 -21.29 17.03 -19.15 17.02 -17.03 21.29 -14.89 23.4 -10.64 23.41 -8.52 23.41 -4.25 25.54 -2.13 27.67 2.13 27.67 6.38 29.79 10.65 27.67 14.89 27.66 31.92 53.21 27.67 55.33 23.41 55.34 19.15 57.46 14.9 57.46 12.77 59.59 6.38 59.59 4.26 59.59 -2.13 59.59 -4.25 59.59 -8.52 59.59 -12.77 57.46 -17.02 59.59 -21.28 57.46 -25.54 55.33 -29.8 53.21 -6.38 12.77 -6.39 8.51 -10.64 19.15 -8.51 19.16 -8.51 42.56 -4.26 40.44 6.39 40.43 12.77 38.31 21.28 34.05 25.54 31.92 34.05 25.54 27.66 14.9 27.67 8.51 27.67 6.39 27.66 2.13 25.54 -2.13 27.67 -4.26 23.41 -8.51 25.54 -10.64 21.28 -14.9 21.28 -17.03 19.16 -19.15 17.02 -23.41 19.15 -31.92 42.57 -80.87 38.31 -83 29.79 -83 25.54 -87.26 19.15 -85.13 12.77 -89.38 6.39 -87.26 0 -87.26 -4.26 -89.38 -10.64 -87.26 -17.03 -87.25 -21.28 -85.13 -29.79 -85.13 -34.05 -83 -40.44 -80.87 -46.82 -78.74 -17.03 -21.29 -17.02 -21.28 -21.28 -14.9 -23.41 -14.89 -23.41 -10.64 -23.41 -8.51 -27.67 -4.26 -25.54 -2.13 0 0zm0 70.23l0 0 19.15 2.13 17.03 2.13 31.92 12.77 27.67 21.28 23.41 27.66 44.69 74.49 38.31 76.62 31.92 78.74 27.67 78.75 21.28 80.86 17.03 83 8.51 83 6.38 83 -2.12 83 -6.39 85.13 -12.77 80.87 -17.02 83 -23.41 80.88 -29.8 80.87 -36.18 76.61 -40.43 76.62 -17.03 31.92 -23.41 27.67 -27.67 21.28 -17.02 6.38 -17.03 6.39 -17.02 2.13 -19.16 2.13 -19.15 -2.13 -19.15 -4.26 -17.03 -6.38 -17.03 -8.52 -23.41 -17.02 -17.02 -21.28 -14.9 -23.41 -8.51 -25.54 -4.26 -25.54 2.13 -27.67 6.38 -27.66 12.77 -25.54 14.9 -23.41 31.92 -59.59 25.54 -59.59 23.41 -61.72 19.16 -61.72 12.77 -63.84 10.64 -63.85 4.25 -65.97 2.13 -63.85 -4.25 -63.84 -8.52 -63.85 -12.77 -63.85 -14.89 -63.85 -21.29 -61.71 -25.53 -59.59 -29.8 -59.59 -34.05 -57.46 -10.64 -17.03 -6.39 -19.15 -4.25 -19.15 0 -19.16 0 -19.15 4.25 -17.03 12.77 -31.92 19.16 -29.8 27.66 -21.28 17.03 -10.64 19.15 -6.39 19.16 -4.25 19.15 -2.13 0 0z"/>
   <polygon class="fil0" points="1967.93,3279.27 1967.93,3279.27 1884.93,3275.01 1801.93,3266.5 1718.93,3253.72 1638.06,3234.57 1557.19,3211.16 1480.58,3181.37 1403.96,3145.19 1329.47,3106.88 1250.73,3055.8 1176.24,3000.47 1103.88,2940.88 1037.91,2874.91 978.32,2804.68 922.99,2730.19 871.91,2651.45 827.21,2568.45 818.7,2551.42 814.45,2530.14 810.19,2510.98 810.19,2491.83 812.32,2466.29 816.58,2442.89 825.09,2419.47 835.73,2398.19 850.62,2379.04 865.52,2359.89 886.8,2344.99 908.09,2334.34 925.11,2325.83 946.4,2319.45 965.55,2317.32 984.7,2315.19 1010.24,2317.32 1033.65,2321.57 1057.06,2330.09 1078.35,2342.86 1097.5,2355.63 1114.52,2372.65 1131.55,2391.81 1144.32,2413.09 1174.11,2472.68 1212.42,2530.14 1250.73,2583.34 1295.42,2634.42 1344.37,2681.24 1395.44,2725.93 1450.78,2766.37 1508.24,2802.55 1561.44,2830.22 1616.78,2855.75 1672.11,2877.04 1729.57,2894.06 1789.16,2908.96 1846.62,2919.6 1908.34,2923.86 1967.93,2925.98 2025.39,2923.86 2036.03,2923.86 2070.08,2928.11 2102.01,2936.63 2131.81,2951.52 2157.34,2972.8 2178.63,2996.22 2195.65,3023.88 2206.29,3055.8 2212.67,3087.73 2210.55,3123.91 2202.03,3157.96 2187.14,3187.75 2167.98,3215.42 2144.57,3238.83 2114.78,3257.98 2082.85,3270.75 2048.81,3275.01 1967.93,3279.27 1967.93,3279.27 "/>
   <path class="fil0" d="M984.7 2281.14l0 0 -23.41 0 -23.41 4.26 -23.41 6.38 -23.41 10.64 -25.54 14.9 -23.41 19.15 -19.15 21.28 -17.02 23.41 -14.9 25.54 -8.52 27.67 -6.38 27.67 -2.13 29.79 2.13 23.41 2.13 23.41 8.51 23.41 8.51 23.41 46.82 85.13 51.08 80.87 57.46 76.62 61.72 70.23 68.1 68.1 72.36 61.72 78.75 57.46 80.86 51.08 76.62 40.43 78.75 36.18 78.74 29.8 83 25.53 83 19.16 85.12 14.9 85.14 8.51 85.12 2.12 40.44 0 40.44 -2.12 23.41 -2.13 19.15 -4.26 40.44 -14.89 34.04 -23.41 29.8 -25.54 23.41 -34.05 17.02 -36.18 8.52 -40.44 2.13 -21.28 0 -21.28 -6.39 -40.44 -12.77 -38.31 -21.28 -34.05 -25.54 -27.66 -29.79 -25.54 -36.18 -17.03 -38.31 -10.64 -40.44 -4.26 -6.38 0 -6.39 0 -27.66 2.13 -27.67 0 -57.46 -2.13 -59.59 -6.38 -55.33 -8.51 -57.46 -12.77 -55.34 -19.16 -53.2 -19.15 -53.21 -23.41 -51.08 -29.79 -55.33 -34.06 -53.2 -38.3 -48.95 -42.57 -46.82 -44.69 -40.44 -48.95 -40.43 -51.08 -34.06 -55.33 -31.92 -57.46 -14.9 -25.54 -19.15 -23.41 -21.28 -21.28 -23.41 -17.03 -25.54 -12.77 -27.66 -10.64 -27.67 -4.25 -29.8 -2.13 0 0zm0 68.1l0 0 21.29 2.13 19.15 4.26 17.03 6.38 17.02 8.51 17.02 12.77 12.78 12.77 12.77 14.9 10.64 19.15 31.92 61.72 38.3 59.59 42.57 55.33 44.69 51.08 51.08 48.95 51.07 46.82 57.47 40.44 59.59 38.3 55.33 29.8 57.46 25.54 59.59 23.41 59.59 17.02 59.59 14.9 61.72 10.64 61.71 6.39 63.85 2.12 59.59 -2.12 8.51 0 27.67 2.12 25.54 8.52 23.41 10.64 19.16 17.02 17.02 19.16 14.9 21.28 8.51 25.53 4.25 27.67 -2.12 27.67 -4.26 27.66 -12.77 23.42 -14.9 21.28 -19.15 19.15 -23.41 14.9 -25.54 10.64 -27.67 4.26 -40.43 2.13 -38.31 0 -80.87 -2.13 -80.87 -8.51 -80.87 -12.77 -76.62 -19.16 -78.74 -23.41 -76.62 -27.66 -74.49 -34.06 -70.23 -38.3 -78.74 -48.95 -72.36 -53.21 -68.1 -59.59 -65.97 -63.84 -57.46 -68.11 -55.34 -72.35 -48.95 -76.62 -42.56 -80.87 -10.64 -29.8 -4.26 -31.92 2.13 -21.28 4.25 -19.15 6.39 -17.03 8.51 -17.03 10.65 -14.89 12.77 -14.9 17.02 -12.77 17.03 -8.51 29.79 -12.77 31.92 -4.26 0 0z"/>
   <polygon class="fil0" points="1003.86,1659.7 1003.86,1659.7 982.58,1659.7 961.29,1655.45 940.01,1649.07 920.86,1638.42 899.58,1625.66 882.55,1610.76 865.52,1593.73 852.76,1574.58 842.11,1553.29 835.73,1532.01 829.35,1508.6 827.21,1485.19 829.35,1463.91 833.6,1440.5 839.99,1419.22 848.5,1400.06 867.65,1368.14 912.35,1297.91 961.29,1229.81 1014.5,1165.96 1071.96,1104.25 1131.55,1048.91 1195.4,995.71 1263.5,948.88 1333.73,904.19 1406.09,865.88 1480.58,831.84 1557.19,802.04 1638.06,778.63 1716.81,759.47 1799.81,744.58 1882.81,736.06 1967.93,733.94 2029.65,733.94 2063.7,740.32 2095.63,750.96 2125.42,770.12 2150.96,793.53 2172.24,821.2 2185.01,850.99 2193.52,885.04 2195.65,919.09 2191.39,953.14 2180.75,985.06 2163.73,1014.86 2142.44,1038.27 2116.91,1059.55 2087.11,1074.45 2055.19,1082.96 2021.14,1087.22 2012.63,1085.09 1970.06,1085.09 1908.34,1087.22 1846.62,1093.6 1787.03,1104.25 1729.57,1117.02 1672.11,1134.04 1616.78,1155.32 1561.44,1180.86 1508.24,1208.53 1457.17,1240.45 1410.34,1274.5 1363.52,1312.81 1318.83,1353.25 1278.4,1395.81 1240.09,1442.63 1203.91,1493.7 1171.99,1544.78 1159.21,1568.19 1146.44,1587.35 1131.55,1606.5 1112.4,1621.4 1095.37,1636.29 1074.09,1646.93 1050.68,1653.32 1027.27,1657.58 1003.86,1659.7 1003.86,1659.7 "/>
   <path class="fil0" d="M1967.93 699.89l0 0 -87.26 2.13 -85.12 8.51 -85.13 14.9 -83 19.15 -80.87 25.54 -78.74 27.66 -76.62 36.18 -74.49 38.31 -72.36 44.69 -68.1 48.95 -65.97 53.21 -61.72 59.58 -59.59 61.73 -55.34 65.97 -48.94 70.23 -46.82 74.48 -19.16 31.93 -10.64 25.54 -8.51 25.53 -4.26 25.55 -2.12 25.53 2.12 27.67 4.26 27.66 10.64 25.55 12.77 25.53 14.9 23.41 19.15 21.28 21.28 17.03 25.54 17.03 23.41 10.64 25.54 8.51 25.54 4.26 25.54 0 27.66 0 27.67 -6.39 27.67 -8.51 23.41 -12.77 23.41 -14.9 21.28 -19.15 19.15 -21.28 14.9 -25.54 12.77 -23.41 31.92 -48.95 34.06 -48.95 38.3 -44.69 38.31 -42.56 42.56 -38.31 44.69 -36.18 46.82 -34.06 48.96 -29.79 51.07 -27.66 51.08 -23.41 53.2 -19.16 55.34 -17.03 55.33 -12.77 57.46 -10.64 59.59 -6.38 59.59 0 40.44 0 10.64 0 40.43 -4.25 38.31 -10.65 36.18 -19.15 29.79 -23.41 25.54 -29.79 21.28 -34.06 12.77 -38.31 6.39 -40.43 0 -21.28 -2.13 -21.29 -10.64 -40.43 -19.15 -36.18 -23.42 -34.05 -29.79 -25.54 -34.05 -21.28 -38.31 -14.9 -21.28 -4.25 -21.28 -2.13 -31.93 0 -31.92 0 0 0zm0 70.23l0 0 59.59 0 27.67 4.25 25.54 8.51 23.41 14.9 21.28 19.16 14.9 21.28 12.76 25.54 6.39 25.54 2.13 27.66 -4.26 27.67 -8.51 25.54 -12.77 23.41 -17.03 19.15 -21.28 17.03 -23.41 12.77 -25.53 6.38 -27.67 4.26 -6.39 -2.13 -23.41 0 -21.28 -2.13 -63.84 4.26 -61.72 4.26 -61.72 10.63 -61.72 14.9 -59.59 17.03 -57.46 21.28 -57.46 25.54 -55.34 29.79 -53.2 34.06 -51.08 36.18 -46.82 38.3 -46.82 44.7 -42.56 44.69 -40.44 48.94 -36.18 51.08 -31.92 53.21 -14.9 23.41 -10.64 17.02 -10.64 12.77 -14.9 12.77 -14.9 10.64 -17.02 10.64 -17.02 4.26 -19.16 4.25 -19.15 2.14 -17.03 -2.14 -17.03 -2.12 -31.92 -12.77 -17.02 -10.64 -14.9 -12.77 -12.77 -12.77 -10.64 -17.03 -8.51 -14.9 -6.39 -19.15 -4.26 -17.02 0 -19.16 0 -19.15 4.26 -14.9 6.39 -17.03 6.38 -17.02 19.16 -29.8 42.56 -70.23 46.82 -65.97 51.07 -61.72 55.34 -59.59 59.59 -55.33 61.72 -51.08 65.97 -46.82 68.1 -42.56 70.24 -38.31 74.48 -34.05 76.62 -27.67 76.61 -23.41 78.74 -17.02 78.75 -12.77 80.87 -8.52 80.87 -2.12 0 0z"/>
   <polygon class="fil0" points="2385.06,980.81 2385.06,980.81 2372.29,1008.47 2365.9,1038.27 2365.9,1068.06 2370.16,1095.73 2380.8,1123.4 2395.7,1148.94 2416.98,1172.35 2442.52,1189.37 2470.19,1202.14 2497.85,1208.53 2529.78,1208.53 2557.44,1204.27 2585.11,1193.63 2610.65,1178.73 2631.93,1159.58 2651.08,1134.04 2663.85,1106.37 2668.11,1076.58 2670.24,1046.78 2665.98,1019.12 2655.34,991.45 2640.44,965.91 2619.16,944.63 2593.62,925.47 2565.96,912.71 2536.16,906.32 2506.37,906.32 2478.7,910.58 2451.04,921.22 2425.49,936.12 2404.21,957.4 2385.06,980.81 "/>
   <polygon class="fil0" points="2399.96,2870.65 2399.96,2870.65 2387.19,2898.32 2380.8,2928.11 2378.67,2957.9 2385.06,2985.57 2393.57,3013.24 2410.6,3038.78 2429.75,3060.06 2455.29,3079.21 2482.96,3091.98 2512.75,3098.37 2542.55,3098.37 2570.21,3094.11 2597.88,3083.47 2623.42,3068.57 2644.7,3047.29 2663.85,3023.88 2676.62,2994.09 2683.01,2966.42 2683.01,2936.63 2678.75,2906.83 2668.11,2879.16 2653.21,2855.75 2634.06,2832.34 2608.52,2815.32 2580.85,2802.55 2551.06,2796.16 2521.26,2794.04 2493.6,2800.42 2465.93,2811.06 2440.39,2825.96 2416.98,2845.11 2399.96,2870.65 "/>
   <polygon class="fil0" points="739.96,1908.7 739.96,1908.7 727.19,1936.37 720.8,1966.17 718.68,1995.96 725.06,2025.75 735.7,2051.29 750.6,2076.83 771.88,2100.24 795.29,2117.27 825.09,2130.04 852.76,2136.42 882.55,2138.55 912.35,2132.17 937.88,2123.65 963.42,2106.63 986.83,2087.48 1003.86,2061.93 1016.62,2034.27 1023.01,2004.48 1025.14,1974.68 1020.88,1947.01 1010.24,1919.34 995.35,1893.81 974.06,1872.52 948.52,1853.37 920.86,1840.6 891.06,1834.22 861.27,1834.22 833.6,1838.47 805.94,1849.11 780.39,1864.01 759.11,1883.17 739.96,1908.7 "/>
  </g>
 </g>
</svg>
