<?xml version="1.0" encoding="UTF-8"?>
<!DOCTYPE svg PUBLIC "-//W3C//DTD SVG 1.1//EN" "http://www.w3.org/Graphics/SVG/1.1/DTD/svg11.dtd">
<!-- Creator: CorelDRAW 2021 (64-Bit) -->
<svg xmlns="http://www.w3.org/2000/svg" xml:space="preserve" width="110mm" height="40mm" version="1.1" style="shape-rendering:geometricPrecision; text-rendering:geometricPrecision; image-rendering:optimizeQuality; fill-rule:evenodd; clip-rule:evenodd"
viewBox="0 0 11000 4000"
 xmlns:xlink="http://www.w3.org/1999/xlink"
 xmlns:xodm="http://www.corel.com/coreldraw/odm/2003">
 <defs>
  <style type="text/css">
   <![CDATA[
    .fil0 {fill:#1E4A74;fill-rule:nonzero}
    .fil1 {fill:#41BD97;fill-rule:nonzero}
    .fil2 {fill:#FBCE35;fill-rule:nonzero}
   ]]>
  </style>
 </defs>
 <g id="Layer_x0020_1">
  <metadata id="CorelCorpID_0Corel-Layer"/>
  <g id="_1778453664">
   <polygon class="fil0" points="5101.08,2743.26 5101.08,2743.26 5003.61,2738.13 4911.28,2733 4829.2,2722.74 4757.38,2707.36 4736.87,2697.09 4726.6,2681.7 4726.6,2666.32 4726.6,2527.81 4726.6,2512.42 4736.87,2502.16 4747.12,2491.9 4757.38,2491.9 4762.51,2491.9 4798.42,2497.03 4839.46,2497.03 4885.63,2502.16 4936.93,2507.29 4988.22,2507.29 5034.39,2512.42 5075.43,2512.42 5106.22,2512.42 5167.77,2507.29 5213.94,2502.16 5254.98,2486.77 5285.75,2466.25 5306.28,2440.6 5321.67,2414.95 5326.79,2379.05 5331.92,2338.01 5321.67,2286.7 5311.4,2266.19 5296.02,2245.66 5275.49,2220.02 5244.71,2199.5 5208.81,2173.85 5167.77,2148.21 4911.28,1994.31 4849.72,1953.27 4798.42,1912.23 4762.51,1871.19 4731.73,1830.15 4706.08,1783.98 4695.83,1737.82 4685.56,1691.65 4685.56,1640.35 4690.69,1563.41 4706.08,1491.59 4741.99,1430.02 4788.16,1378.73 4854.85,1332.55 4936.93,1301.78 4988.22,1286.39 5039.52,1281.26 5101.08,1271 5167.77,1271 5270.36,1276.13 5378.1,1286.39 5424.26,1291.53 5470.43,1296.65 5511.47,1301.78 5537.12,1306.92 5562.76,1322.3 5567.9,1332.55 5573.02,1342.82 5573.02,1486.45 5562.76,1512.1 5552.51,1522.37 5542.24,1522.37 5537.12,1522.37 5347.31,1506.98 5152.38,1501.84 5106.22,1506.98 5065.18,1512.1 5029.26,1522.37 4998.48,1537.76 4977.97,1558.27 4962.57,1583.92 4952.32,1609.57 4952.32,1640.35 4957.44,1686.52 4967.71,1707.04 4983.1,1722.43 5003.61,1742.94 5034.39,1768.6 5065.18,1789.11 5111.34,1814.76 5342.18,1943.01 5414,1984.05 5475.55,2030.21 5521.73,2076.38 5557.63,2127.68 5583.28,2178.98 5598.67,2225.15 5608.94,2281.58 5614.06,2338.01 5603.8,2409.82 5588.41,2481.64 5552.51,2548.33 5501.2,2609.89 5434.52,2666.32 5393.48,2686.83 5347.31,2707.36 5296.02,2722.74 5234.45,2733 5172.9,2738.13 5101.08,2743.26 "/>
   <path class="fil0" d="M6378.41 2245.66l0 0 -123.12 0 -61.55 5.14 -46.18 5.13 -35.9 15.39 -30.78 15.38 -15.39 25.66 -15.39 25.65 -5.14 35.9 -5.12 35.91 0 10.27 5.12 30.77 5.14 25.66 10.25 20.51 15.39 15.39 41.04 20.51 61.57 5.14 56.43 -5.14 51.29 -10.25 51.3 -15.39 41.04 -20.52 0 -241.11 0 0zm220.58 482.21l0 0 -169.29 0 -15.39 -5.13 -10.26 -5.13 -10.25 -15.39 0 -15.39 0 -30.78 -66.69 35.92 -71.82 25.64 -66.69 20.52 -66.68 5.13 -61.57 -5.13 -61.55 -10.26 -56.43 -20.51 -51.3 -30.78 -41.03 -41.04 -35.92 -56.43 -20.51 -71.82 -10.26 -87.2 0 -10.27 10.26 -76.95 15.39 -66.68 35.9 -56.43 51.31 -51.3 61.55 -35.9 82.08 -25.66 97.47 -15.38 117.98 -5.14 123.12 0 0 -87.21 0 -41.03 -10.26 -35.91 -15.39 -25.65 -15.39 -20.52 -25.65 -15.38 -25.65 -10.27 -35.9 -5.12 -41.04 0 -92.35 0 -87.2 5.12 -76.95 5.13 -35.91 5.14 -25.65 0 -5.13 0 -25.65 -5.14 -10.25 -10.25 -5.14 -15.39 0 -128.25 10.26 -25.65 30.78 -15.39 66.69 -10.26 71.82 -10.26 87.21 -5.13 97.47 -5.12 97.46 5.12 87.21 20.51 71.82 25.66 56.43 41.04 51.29 51.3 30.77 66.68 25.66 71.82 5.13 87.2 0 697.66 -5.13 15.39 -5.13 15.39 -15.39 5.13 -10.26 5.13 0 0z"/>
   <polygon class="fil0" points="7419.77,1424.9 7419.77,1424.9 7332.55,1424.9 7301.77,1424.9 7276.12,1430.02 7255.61,1435.16 7240.22,1445.41 7229.95,1460.8 7224.83,1481.33 7219.7,1506.98 7214.57,1537.76 7214.57,1635.22 7404.37,1635.22 7419.77,1635.22 7430.02,1645.47 7440.28,1655.74 7440.28,1676.25 7440.28,1789.11 7440.28,1804.5 7430.02,1814.76 7419.77,1825.02 7404.37,1825.02 7214.57,1825.02 7214.57,2686.83 7214.57,2702.22 7204.3,2712.48 7194.05,2722.74 7178.66,2727.87 7004.24,2727.87 6988.85,2722.74 6973.46,2712.48 6968.34,2702.22 6963.21,2686.83 6963.21,1825.02 6788.79,1799.37 6763.15,1789.11 6752.89,1778.86 6752.89,1763.47 6752.89,1676.25 6752.89,1655.74 6763.15,1645.47 6773.4,1635.22 6788.79,1635.22 6963.21,1635.22 6963.21,1537.76 6968.34,1455.68 6988.85,1383.86 7014.5,1332.55 7055.54,1291.53 7101.71,1260.74 7163.27,1245.35 7224.83,1235.1 7296.65,1229.96 7358.2,1235.1 7414.63,1245.35 7435.15,1255.61 7445.41,1265.88 7445.41,1276.13 7445.41,1388.98 7445.41,1404.37 7440.28,1414.63 7419.77,1424.9 "/>
   <path class="fil0" d="M8209.76 2081.52l0 0 -5.13 -51.31 -10.26 -51.29 -15.39 -41.04 -25.65 -35.91 -30.78 -25.66 -35.92 -20.51 -41.04 -10.26 -41.02 -5.13 -41.04 5.13 -41.04 10.26 -35.92 20.51 -30.78 25.66 -25.65 35.91 -15.39 41.04 -15.38 46.17 0 56.43 0 5.12 410.39 0 0 -5.12 0 0zm220.57 189.8l0 0 -636.09 0 0 5.13 5.13 41.03 5.12 46.18 15.4 41.03 20.52 35.91 35.91 30.78 35.9 25.65 51.31 20.51 66.68 5.14 102.59 -5.14 97.47 -5.12 82.08 -5.13 71.82 -5.13 5.12 0 25.65 10.26 10.27 5.12 0 15.39 0 128.25 0 20.52 -5.13 10.27 -15.39 10.25 -20.52 5.14 -87.21 15.38 -82.08 10.26 -41.04 5.13 -51.29 5.13 -51.3 0 -61.56 0 -76.95 -5.13 -76.95 -20.52 -76.94 -30.78 -76.95 -46.17 -61.56 -61.55 -30.77 -41.04 -20.53 -46.17 -20.51 -46.17 -15.39 -56.43 -10.27 -61.56 0 -71.81 0 -143.64 5.14 -107.73 25.64 -97.46 35.92 -82.08 51.29 -71.81 66.69 -56.43 82.08 -41.04 92.33 -25.65 102.61 -10.25 107.72 10.25 92.34 25.65 76.94 46.16 66.69 56.43 51.3 71.82 35.91 82.08 20.51 97.47 10.27 102.59 0 107.73 -5.14 20.52 -5.13 15.39 -10.26 10.26 -15.39 5.13 0 0z"/>
   <polygon class="fil0" points="9220.33,2727.87 9220.33,2727.87 9153.64,2738.13 9086.95,2743.26 9010.01,2738.13 8948.45,2727.87 8892.02,2712.48 8850.98,2686.83 8820.21,2645.79 8799.68,2594.5 8784.29,2522.68 8779.17,2435.48 8779.17,1825.02 8599.62,1799.37 8568.84,1783.98 8563.72,1773.72 8558.58,1763.47 8558.58,1676.25 8563.72,1655.74 8568.84,1645.47 8584.23,1635.22 8599.62,1635.22 8779.17,1635.22 8779.17,1476.19 8784.29,1460.8 8789.42,1450.55 8820.21,1440.29 8999.74,1404.37 9004.88,1404.37 9030.52,1414.63 9040.78,1435.16 9040.78,1635.22 9210.07,1635.22 9225.46,1635.22 9240.85,1645.47 9245.97,1655.74 9251.11,1676.25 9251.11,1789.11 9245.97,1804.5 9240.85,1814.76 9225.46,1825.02 9210.07,1825.02 9040.78,1825.02 9040.78,2435.48 9040.78,2466.25 9040.78,2491.9 9045.91,2512.42 9051.05,2522.68 9071.56,2538.07 9086.95,2543.2 9112.6,2543.2 9215.2,2543.2 9245.97,2548.33 9256.24,2558.58 9256.24,2573.97 9256.24,2691.97 9251.11,2717.61 9235.72,2722.74 9220.33,2727.87 "/>
   <path class="fil0" d="M10338.63 1681.39l0 0 0 -15.39 0 -10.26 -10.26 -10.27 -10.25 -10.25 -15.4 0 -194.93 0 -15.39 0 -10.26 10.25 -10.26 10.27 0 10.26 -210.32 836.16 -20.52 0 -5.13 -5.13 -10.26 -5.13 -5.13 -15.38 -5.14 -20.53 -194.92 -784.86 -15.39 -25.66 -10.26 -10.25 -10.27 0 -194.92 0 -20.53 0 -10.26 10.25 -10.25 20.53 5.12 15.39 256.5 882.33 15.38 51.29 20.52 35.92 20.52 30.77 20.52 20.52 20.52 10.26 25.66 10.26 41.02 5.13 30.79 0 -15.38 56.43 -10.27 35.91 -15.39 25.64 -15.38 20.53 -15.39 20.51 -41.04 15.39 -56.43 5.14 -51.31 0 -56.42 -5.14 -61.56 -5.12 -25.65 0 -25.65 0 0 0 -15.39 0 -15.39 10.26 -5.12 10.25 -5.14 15.39 0 123.12 5.14 10.26 5.12 10.27 30.78 10.25 41.04 10.26 51.3 10.26 61.56 5.13c176.61,0 301.15,2.77 395,-169.29l25.65 -61.55 25.64 -71.82 323.18 -1128.56 0 0z"/>
   <polygon class="fil1" points="3977.64,1799.37 3977.64,1799.37 4203.36,1799.37 4239.27,1804.5 4264.92,1819.9 4285.44,1845.54 4290.56,1876.31 4290.56,2553.46 4444.46,2553.46 4480.38,2558.58 4506.02,2579.11 4526.54,2604.76 4531.67,2635.54 4526.54,2671.44 4506.02,2697.09 4480.38,2712.48 4444.46,2717.61 3977.64,2717.61 3936.62,2712.48 3910.96,2697.09 3890.44,2671.44 3885.31,2635.54 3890.44,2604.76 3910.96,2579.11 3941.74,2558.58 3977.64,2553.46 4126.42,2553.46 4126.42,1958.4 3977.64,1958.4 3936.62,1953.27 3910.96,1937.88 3890.44,1912.23 3885.31,1876.31 3890.44,1845.54 3910.96,1819.9 3941.74,1804.5 3977.64,1799.37 "/>
   <polygon class="fil2" points="4136.68,1383.86 4136.68,1383.86 4218.75,1383.86 4244.4,1388.98 4270.05,1409.51 4285.44,1435.16 4290.56,1465.94 4290.56,1537.76 4285.44,1568.53 4264.92,1594.18 4239.27,1609.57 4203.36,1614.7 4136.68,1614.7 4100.76,1609.57 4069.99,1594.18 4049.46,1568.53 4044.33,1537.76 4044.33,1465.94 4049.46,1435.16 4069.99,1404.37 4100.76,1388.98 4136.68,1383.86 "/>
   <g>
    <polygon class="fil1" points="2841.71,2758.39 2841.71,2758.39 2818.3,2758.39 2794.89,2752 2771.48,2743.49 2750.2,2732.85 2722.53,2711.57 2699.12,2686.03 2682.1,2656.23 2671.46,2624.31 2667.2,2590.26 2669.33,2556.21 2677.84,2522.16 2692.74,2490.23 2707.64,2468.95 2737.43,2411.49 2762.97,2354.03 2784.25,2294.44 2803.41,2232.72 2816.18,2173.13 2824.69,2111.41 2831.07,2049.7 2831.07,1985.85 2828.94,1924.13 2820.43,1862.41 2807.66,1802.82 2792.76,1741.11 2771.48,1681.52 2748.08,1624.05 2718.28,1566.6 2686.35,1511.26 2673.59,1489.98 2665.08,1466.57 2660.82,1441.03 2658.69,1417.62 2660.82,1394.21 2665.08,1372.93 2671.46,1351.64 2679.97,1332.49 2692.74,1313.34 2705.51,1296.31 2722.53,1281.41 2739.56,1268.64 2762.97,1255.88 2784.25,1247.37 2807.66,1243.11 2833.2,1240.98 2856.61,1243.11 2877.89,1245.23 2899.17,1253.75 2918.33,1262.26 2937.48,1272.9 2954.51,1287.8 2969.41,1304.82 2982.17,1321.85 3026.87,1398.47 3067.3,1477.21 3101.35,1558.08 3129.02,1641.08 3150.3,1724.08 3167.33,1809.21 3177.97,1894.34 3182.23,1979.46 3182.23,2064.6 3175.84,2149.72 3163.07,2234.85 3143.92,2319.98 3118.38,2402.98 3088.58,2485.98 3052.41,2566.85 3011.97,2643.46 2992.82,2675.39 2977.92,2694.54 2963.02,2711.57 2948.12,2724.34 2928.97,2737.1 2907.69,2745.62 2886.41,2754.13 2865.12,2758.39 2841.71,2758.39 2841.71,2758.39 "/>
    <path class="fil1" d="M2833.2 1204.8l0 0 -27.67 2.13 -29.79 6.38 -27.66 10.65 -27.67 14.89 -21.29 17.03 -19.15 17.02 -17.03 21.29 -14.89 23.4 -10.64 23.41 -8.52 23.41 -4.25 25.54 -2.13 27.67 2.13 27.67 6.38 29.79 10.65 27.67 14.89 27.66 31.92 53.21 27.67 55.33 23.41 55.34 19.15 57.46 14.9 57.46 12.77 59.59 6.38 59.59 4.26 59.59 -2.13 59.59 -4.25 59.59 -8.52 59.59 -12.77 57.46 -17.02 59.59 -21.28 57.46 -25.54 55.33 -29.8 53.21 -6.38 12.77 -6.39 8.51 -10.64 19.15 -8.51 19.16 -8.51 42.56 -4.26 40.44 6.39 40.43 12.77 38.31 21.28 34.05 25.54 31.92 34.05 25.54 27.66 14.9 27.67 8.51 27.67 6.39 27.66 2.13 25.54 -2.13 27.67 -4.26 23.41 -8.51 25.54 -10.64 21.28 -14.9 21.28 -17.03 19.16 -19.15 17.02 -23.41 19.15 -31.92 42.57 -80.87 38.31 -83 29.79 -83 25.54 -87.26 19.15 -85.13 12.77 -89.38 6.39 -87.26 0 -87.26 -4.26 -89.38 -10.64 -87.26 -17.03 -87.25 -21.28 -85.13 -29.79 -85.13 -34.05 -83 -40.44 -80.87 -46.82 -78.74 -17.03 -21.29 -17.02 -21.28 -21.28 -14.9 -23.41 -14.89 -23.41 -10.64 -23.41 -8.51 -27.67 -4.26 -25.54 -2.13 0 0zm0 70.23l0 0 19.15 2.13 17.03 2.13 31.92 12.77 27.67 21.28 23.41 27.66 44.69 74.49 38.31 76.62 31.92 78.74 27.67 78.75 21.28 80.86 17.03 83 8.51 83 6.38 83 -2.12 83 -6.39 85.13 -12.77 80.87 -17.02 83 -23.41 80.88 -29.8 80.87 -36.18 76.61 -40.43 76.62 -17.03 31.92 -23.41 27.67 -27.67 21.28 -17.02 6.38 -17.03 6.39 -17.02 2.13 -19.16 2.13 -19.15 -2.13 -19.15 -4.26 -17.03 -6.38 -17.03 -8.52 -23.41 -17.02 -17.02 -21.28 -14.9 -23.41 -8.51 -25.54 -4.26 -25.54 2.13 -27.67 6.38 -27.66 12.77 -25.54 14.9 -23.41 31.92 -59.59 25.54 -59.59 23.41 -61.72 19.16 -61.72 12.77 -63.84 10.64 -63.85 4.25 -65.97 2.13 -63.85 -4.25 -63.84 -8.52 -63.85 -12.77 -63.85 -14.89 -63.85 -21.29 -61.71 -25.53 -59.59 -29.8 -59.59 -34.05 -57.46 -10.64 -17.03 -6.39 -19.15 -4.25 -19.15 0 -19.16 0 -19.15 4.25 -17.03 12.77 -31.92 19.16 -29.8 27.66 -21.28 17.03 -10.64 19.15 -6.39 19.16 -4.25 19.15 -2.13 0 0z"/>
    <polygon class="fil2" points="1909.56,3279.8 1909.56,3279.8 1826.56,3275.54 1743.56,3267.03 1660.56,3254.25 1579.69,3235.1 1498.82,3211.69 1422.21,3181.9 1345.59,3145.72 1271.1,3107.41 1192.36,3056.33 1117.87,3001 1045.51,2941.41 979.54,2875.44 919.95,2805.21 864.62,2730.72 813.54,2651.98 768.84,2568.98 760.33,2551.95 756.08,2530.67 751.82,2511.51 751.82,2492.36 753.95,2466.82 758.21,2443.42 766.72,2420 777.36,2398.72 792.25,2379.57 807.15,2360.42 828.43,2345.52 849.72,2334.87 866.74,2326.36 888.03,2319.98 907.18,2317.85 926.33,2315.72 951.87,2317.85 975.28,2322.1 998.69,2330.62 1019.98,2343.39 1039.13,2356.16 1056.15,2373.18 1073.18,2392.34 1085.95,2413.62 1115.74,2473.21 1154.05,2530.67 1192.36,2583.87 1237.05,2634.95 1286,2681.77 1337.07,2726.46 1392.41,2766.9 1449.87,2803.08 1503.07,2830.75 1558.41,2856.28 1613.74,2877.57 1671.2,2894.59 1730.79,2909.49 1788.25,2920.13 1849.97,2924.39 1909.56,2926.51 1967.02,2924.39 1977.66,2924.39 2011.71,2928.64 2043.64,2937.16 2073.44,2952.05 2098.97,2973.33 2120.26,2996.75 2137.28,3024.41 2147.92,3056.33 2154.3,3088.26 2152.18,3124.44 2143.66,3158.49 2128.77,3188.28 2109.61,3215.95 2086.2,3239.36 2056.41,3258.51 2024.48,3271.28 1990.44,3275.54 1909.56,3279.8 1909.56,3279.8 "/>
    <path class="fil2" d="M926.33 2281.67l0 0 -23.41 0 -23.41 4.26 -23.41 6.38 -23.41 10.64 -25.54 14.9 -23.41 19.15 -19.15 21.28 -17.02 23.41 -14.9 25.54 -8.52 27.67 -6.38 27.67 -2.13 29.79 2.13 23.41 2.13 23.41 8.51 23.41 8.51 23.41 46.82 85.13 51.08 80.87 57.46 76.62 61.72 70.23 68.1 68.1 72.36 61.72 78.75 57.46 80.86 51.08 76.62 40.43 78.75 36.18 78.74 29.8 83 25.53 83 19.16 85.12 14.9 85.14 8.51 85.12 2.12 40.44 0 40.44 -2.12 23.41 -2.13 19.15 -4.26 40.44 -14.89 34.04 -23.41 29.8 -25.54 23.41 -34.05 17.02 -36.18 8.52 -40.44 2.13 -21.28 0 -21.28 -6.39 -40.44 -12.77 -38.31 -21.28 -34.05 -25.54 -27.66 -29.79 -25.54 -36.18 -17.03 -38.31 -10.64 -40.44 -4.26 -6.38 0 -6.39 0 -27.66 2.13 -27.67 0 -57.46 -2.13 -59.59 -6.38 -55.33 -8.51 -57.46 -12.77 -55.34 -19.16 -53.2 -19.15 -53.21 -23.41 -51.08 -29.79 -55.33 -34.06 -53.2 -38.3 -48.95 -42.57 -46.82 -44.69 -40.44 -48.95 -40.43 -51.08 -34.06 -55.33 -31.92 -57.46 -14.9 -25.54 -19.15 -23.41 -21.28 -21.28 -23.41 -17.03 -25.54 -12.77 -27.66 -10.64 -27.67 -4.25 -29.8 -2.13 0 0zm0 68.1l0 0 21.29 2.13 19.15 4.26 17.03 6.38 17.02 8.51 17.02 12.77 12.78 12.77 12.77 14.9 10.64 19.15 31.92 61.72 38.3 59.59 42.57 55.33 44.69 51.08 51.08 48.95 51.07 46.82 57.47 40.44 59.59 38.3 55.33 29.8 57.46 25.54 59.59 23.41 59.59 17.02 59.59 14.9 61.72 10.64 61.71 6.39 63.85 2.12 59.59 -2.12 8.51 0 27.67 2.12 25.54 8.52 23.41 10.64 19.16 17.02 17.02 19.16 14.9 21.28 8.51 25.53 4.25 27.67 -2.12 27.67 -4.26 27.66 -12.77 23.42 -14.9 21.28 -19.15 19.15 -23.41 14.9 -25.54 10.64 -27.67 4.26 -40.43 2.13 -38.31 0 -80.87 -2.13 -80.87 -8.51 -80.87 -12.77 -76.62 -19.16 -78.74 -23.41 -76.62 -27.66 -74.49 -34.06 -70.23 -38.3 -78.74 -48.95 -72.36 -53.21 -68.1 -59.59 -65.97 -63.84 -57.46 -68.11 -55.34 -72.35 -48.95 -76.62 -42.56 -80.87 -10.64 -29.8 -4.26 -31.92 2.13 -21.28 4.25 -19.15 6.39 -17.03 8.51 -17.03 10.65 -14.89 12.77 -14.9 17.02 -12.77 17.03 -8.51 29.79 -12.77 31.92 -4.26 0 0z"/>
    <polygon class="fil0" points="945.49,1660.23 945.49,1660.23 924.21,1660.23 902.92,1655.98 881.64,1649.6 862.49,1638.95 841.21,1626.19 824.18,1611.29 807.15,1594.26 794.39,1575.11 783.74,1553.82 777.36,1532.54 770.98,1509.13 768.84,1485.72 770.98,1464.44 775.23,1441.03 781.62,1419.75 790.13,1400.59 809.28,1368.67 853.98,1298.44 902.92,1230.34 956.13,1166.49 1013.59,1104.78 1073.18,1049.44 1137.03,996.24 1205.13,949.41 1275.36,904.72 1347.72,866.41 1422.21,832.37 1498.82,802.57 1579.69,779.16 1658.44,760 1741.44,745.11 1824.44,736.59 1909.56,734.47 1971.28,734.47 2005.33,740.85 2037.26,751.49 2067.05,770.65 2092.59,794.06 2113.87,821.73 2126.64,851.52 2135.15,885.57 2137.28,919.62 2133.02,953.67 2122.38,985.59 2105.36,1015.39 2084.07,1038.8 2058.54,1060.08 2028.74,1074.98 1996.82,1083.49 1962.77,1087.75 1954.26,1085.62 1911.69,1085.62 1849.97,1087.75 1788.25,1094.13 1728.66,1104.78 1671.2,1117.55 1613.74,1134.57 1558.41,1155.85 1503.07,1181.39 1449.87,1209.06 1398.8,1240.98 1351.97,1275.03 1305.15,1313.34 1260.46,1353.78 1220.03,1396.34 1181.72,1443.16 1145.54,1494.23 1113.62,1545.31 1100.84,1568.72 1088.07,1587.88 1073.18,1607.03 1054.03,1621.93 1037,1636.82 1015.72,1647.46 992.31,1653.85 968.9,1658.11 945.49,1660.23 945.49,1660.23 "/>
    <path class="fil0" d="M1909.56 700.42l0 0 -87.26 2.13 -85.12 8.51 -85.13 14.9 -83 19.15 -80.87 25.54 -78.74 27.66 -76.62 36.18 -74.49 38.31 -72.36 44.69 -68.1 48.95 -65.97 53.21 -61.72 59.58 -59.59 61.73 -55.34 65.97 -48.94 70.23 -46.82 74.48 -19.16 31.93 -10.64 25.54 -8.51 25.53 -4.26 25.55 -2.12 25.53 2.12 27.67 4.26 27.66 10.64 25.55 12.77 25.53 14.9 23.41 19.15 21.28 21.28 17.03 25.54 17.03 23.41 10.64 25.54 8.51 25.54 4.26 25.54 0 27.66 0 27.67 -6.39 27.67 -8.51 23.41 -12.77 23.41 -14.9 21.28 -19.15 19.15 -21.28 14.9 -25.54 12.77 -23.41 31.92 -48.95 34.06 -48.95 38.3 -44.69 38.31 -42.56 42.56 -38.31 44.69 -36.18 46.82 -34.06 48.96 -29.79 51.07 -27.66 51.08 -23.41 53.2 -19.16 55.34 -17.03 55.33 -12.77 57.46 -10.64 59.59 -6.38 59.59 0 40.44 0 10.64 0 40.43 -4.25 38.31 -10.65 36.18 -19.15 29.79 -23.41 25.54 -29.79 21.28 -34.06 12.77 -38.31 6.39 -40.43 0 -21.28 -2.13 -21.29 -10.64 -40.43 -19.15 -36.18 -23.42 -34.05 -29.79 -25.54 -34.05 -21.28 -38.31 -14.9 -21.28 -4.25 -21.28 -2.13 -31.93 0 -31.92 0 0 0zm0 70.23l0 0 59.59 0 27.67 4.25 25.54 8.51 23.41 14.9 21.28 19.16 14.9 21.28 12.76 25.54 6.39 25.54 2.13 27.66 -4.26 27.67 -8.51 25.54 -12.77 23.41 -17.03 19.15 -21.28 17.03 -23.41 12.77 -25.53 6.38 -27.67 4.26 -6.39 -2.13 -23.41 0 -21.28 -2.13 -63.84 4.26 -61.72 4.26 -61.72 10.63 -61.72 14.9 -59.59 17.03 -57.46 21.28 -57.46 25.54 -55.34 29.79 -53.2 34.06 -51.08 36.18 -46.82 38.3 -46.82 44.7 -42.56 44.69 -40.44 48.94 -36.18 51.08 -31.92 53.21 -14.9 23.41 -10.64 17.02 -10.64 12.77 -14.9 12.77 -14.9 10.64 -17.02 10.64 -17.02 4.26 -19.16 4.25 -19.15 2.14 -17.03 -2.14 -17.03 -2.12 -31.92 -12.77 -17.02 -10.64 -14.9 -12.77 -12.77 -12.77 -10.64 -17.03 -8.51 -14.9 -6.39 -19.15 -4.26 -17.02 0 -19.16 0 -19.15 4.26 -14.9 6.39 -17.03 6.38 -17.02 19.16 -29.8 42.56 -70.23 46.82 -65.97 51.07 -61.72 55.34 -59.59 59.59 -55.33 61.72 -51.08 65.97 -46.82 68.1 -42.56 70.24 -38.31 74.48 -34.05 76.62 -27.67 76.61 -23.41 78.74 -17.02 78.75 -12.77 80.87 -8.52 80.87 -2.12 0 0z"/>
    <polygon class="fil0" points="2326.69,981.34 2326.69,981.34 2313.92,1009 2307.53,1038.8 2307.53,1068.59 2311.79,1096.26 2322.43,1123.93 2337.33,1149.47 2358.61,1172.88 2384.15,1189.9 2411.82,1202.67 2439.48,1209.06 2471.41,1209.06 2499.07,1204.8 2526.74,1194.16 2552.28,1179.26 2573.56,1160.11 2592.71,1134.57 2605.48,1106.9 2609.74,1077.11 2611.87,1047.31 2607.61,1019.65 2596.97,991.98 2582.07,966.44 2560.79,945.16 2535.25,926 2507.59,913.24 2477.79,906.85 2448,906.85 2420.33,911.11 2392.67,921.75 2367.12,936.65 2345.84,957.93 2326.69,981.34 "/>
    <polygon class="fil1" points="2341.59,2871.18 2341.59,2871.18 2328.82,2898.85 2322.43,2928.64 2320.3,2958.43 2326.69,2986.1 2335.2,3013.77 2352.23,3039.31 2371.38,3060.59 2396.92,3079.74 2424.59,3092.51 2454.38,3098.9 2484.18,3098.9 2511.84,3094.64 2539.51,3084 2565.05,3069.1 2586.33,3047.82 2605.48,3024.41 2618.25,2994.62 2624.64,2966.95 2624.64,2937.16 2620.38,2907.36 2609.74,2879.69 2594.84,2856.28 2575.69,2832.87 2550.15,2815.85 2522.48,2803.08 2492.69,2796.69 2462.89,2794.57 2435.23,2800.95 2407.56,2811.59 2382.02,2826.49 2358.61,2845.64 2341.59,2871.18 "/>
    <polygon class="fil2" points="681.59,1909.23 681.59,1909.23 668.82,1936.9 662.43,1966.7 660.31,1996.49 666.69,2026.28 677.33,2051.82 692.23,2077.36 713.51,2100.77 736.92,2117.8 766.72,2130.57 794.39,2136.95 824.18,2139.08 853.98,2132.7 879.51,2124.18 905.05,2107.16 928.46,2088.01 945.49,2062.46 958.25,2034.8 964.64,2005.01 966.77,1975.21 962.51,1947.54 951.87,1919.87 936.98,1894.34 915.69,1873.05 890.15,1853.9 862.49,1841.13 832.69,1834.75 802.9,1834.75 775.23,1839 747.57,1849.64 722.02,1864.54 700.74,1883.7 681.59,1909.23 "/>
   </g>
  </g>
 </g>
</svg>
