<?xml version="1.0" encoding="UTF-8"?>
<!DOCTYPE svg PUBLIC "-//W3C//DTD SVG 1.1//EN" "http://www.w3.org/Graphics/SVG/1.1/DTD/svg11.dtd">
<!-- Creator: CorelDRAW 2021 (64-Bit) -->
<svg xmlns="http://www.w3.org/2000/svg" xml:space="preserve" width="45mm" height="45mm" version="1.1" style="shape-rendering:geometricPrecision; text-rendering:geometricPrecision; image-rendering:optimizeQuality; fill-rule:evenodd; clip-rule:evenodd"
viewBox="0 0 4500 4500"
 xmlns:xlink="http://www.w3.org/1999/xlink"
 xmlns:xodm="http://www.corel.com/coreldraw/odm/2003">
 <defs>
  <style type="text/css">
   <![CDATA[
    .fil0 {fill:#FEFEFE}
   ]]>
  </style>
 </defs>
 <g id="Layer_x0020_1">
  <metadata id="CorelCorpID_0Corel-Layer"/>
  <path class="fil0" d="M1048.8 615.56c-78.93,0 -182.5,129.84 -257.23,204.57l-174.35 174.04c-66.17,74.19 -30.13,130.54 12.83,202.17l200 334.73c0,28.36 -53.71,133.72 -75.64,199.82 -20.25,61.06 -57.06,56.14 -197.81,85.76 -40.96,8.61 -291.77,68.27 -326,87.18 -24.51,13.54 -56.8,51.06 -56.8,89.04l0 518.52c0,89.16 105.89,107.65 162.02,121.54l351.87 85.63c65.14,15.17 51.85,11.09 74.16,71.68 101.53,275.69 135.77,126.58 -58.87,452.87 -52.56,88.11 -126.95,166.98 -37.01,266.85 60.97,67.71 133.02,132.98 198.51,198.47 232.74,232.74 175.67,221.27 541.25,2.48 121.73,-72.85 85.29,-71.57 199.33,-13.89 213.27,107.87 127.85,-73.23 260.38,460.68 14.49,58.34 32.05,168.5 123.17,168.5l518.52 0c67.42,0 94.89,-62.2 110.11,-116.74l100.03 -410.38c3.05,-12.36 -0.46,-5.27 5.02,-19.29 9.56,-24.43 1.93,-10.43 12.62,-19.79 8.37,-7.33 67.73,-27.6 81.04,-32.39 62.91,-22.62 99.47,-47.4 155.72,-72.15 36.68,-16.15 83.49,26.71 143.55,62.65 378.33,226.42 266.16,248.29 674.02,-159.56 158.98,-158.97 111.51,-156.79 -104.8,-514.99 -44.35,-73.44 -41.79,-49.56 8.32,-148.62 33.34,-65.91 46.2,-150.69 76.96,-166.1 46.06,-23.08 459.63,-92.71 514.22,-142.02 17.42,-15.73 38,-45.67 38,-75.43l0 -518.52c0,-34.66 -28.25,-71.22 -51.71,-86.02 -38.46,-24.25 -290.58,-78.8 -345.38,-92.12 -37.68,-9.17 -69.26,-17.91 -110.2,-27.53 -104.99,-24.67 -45.15,-25.49 -119.15,-172.52 -65.2,-129.56 -70.97,-64.49 75.96,-310.01 172.09,-287.55 182.56,-202.28 -213.12,-597.96 -122.76,-122.77 -132.35,-117.94 -298.19,-18.69 -48.46,29.01 -91.52,54.7 -141.88,84.98 -148.56,89.35 -114.63,91.56 -222.22,36.97 -29.23,-14.83 -45,-21.84 -80.05,-33.38 -88.2,-29.03 -87.83,-27.24 -98.73,-71.41 -21.92,-88.84 -93.5,-443.51 -134.71,-489.12 -15.73,-17.42 -45.67,-38 -75.43,-38l-518.52 0c-29.76,0 -59.7,20.58 -75.43,38 -40.48,44.81 -108.64,380.25 -127.09,456.24 -23.1,95.11 10.63,58.77 -123.97,110.98 -217.5,84.35 -81.58,130.82 -452.81,-93.28 -40.03,-24.16 -106.06,-74.44 -160.51,-74.44zm1199.07 786.37c469.55,0 850.2,380.65 850.2,850.2 0,469.55 -380.65,850.2 -850.2,850.2 -469.55,0 -850.2,-380.65 -850.2,-850.2 0,-469.55 380.65,-850.2 850.2,-850.2z"/>
 </g>
</svg>
