<?xml version="1.0" encoding="UTF-8"?>
<!DOCTYPE svg PUBLIC "-//W3C//DTD SVG 1.1//EN" "http://www.w3.org/Graphics/SVG/1.1/DTD/svg11.dtd">
<!-- Creator: CorelDRAW 2021 (64-Bit) -->
<svg xmlns="http://www.w3.org/2000/svg" xml:space="preserve" width="50mm" height="45mm" version="1.1" style="shape-rendering:geometricPrecision; text-rendering:geometricPrecision; image-rendering:optimizeQuality; fill-rule:evenodd; clip-rule:evenodd"
viewBox="0 0 5000 4500"
 xmlns:xlink="http://www.w3.org/1999/xlink"
 xmlns:xodm="http://www.corel.com/coreldraw/odm/2003">
 <defs>
  <style type="text/css">
   <![CDATA[
    .fil0 {fill:#FEFEFE}
   ]]>
  </style>
 </defs>
 <g id="Layer_x0020_1">
  <metadata id="CorelCorpID_0Corel-Layer"/>
  <path class="fil0" d="M1270.06 3882.93c-84.56,66.13 -191.02,105.56 -306.7,105.56 -275.14,0 -498.28,-223.19 -498.28,-498.33 0,-275.14 223.14,-498.28 498.28,-498.28 115.63,0 222.09,39.43 306.65,105.56 84.57,-66.13 191.03,-105.56 306.65,-105.56 115.63,0 222.09,39.43 306.66,105.56 84.56,-66.13 191.02,-105.56 306.65,-105.56 115.62,0 222.08,39.43 306.65,105.56 84.57,-66.13 191.02,-105.56 306.65,-105.56 48.05,0 94.54,6.82 138.47,19.49 -15.23,-47.74 -23.44,-98.69 -23.44,-151.5 0,-52.8 8.21,-103.7 23.44,-151.44 -43.93,12.67 -90.42,19.49 -138.47,19.49 -115.63,0 -222.08,-39.43 -306.6,-105.56 -84.57,66.13 -191.03,105.56 -306.7,105.56 -115.63,0 -222.09,-39.43 -306.6,-105.56 -84.57,66.13 -191.03,105.56 -306.71,105.56 -275.14,0 -498.27,-223.19 -498.27,-498.33 0,-45.09 6.01,-88.78 17.23,-130.31 -41.58,11.22 -85.27,17.24 -130.36,17.24 -275.14,0 -498.27,-223.19 -498.27,-498.33 0,-275.14 223.13,-498.28 498.27,-498.28 37.38,0 73.8,4.11 108.82,11.92 -7.82,-35.02 -11.93,-71.44 -11.93,-108.81 0,-275.14 223.14,-498.28 498.28,-498.28 115.63,0 222.09,39.43 306.65,105.56 84.57,-66.13 191.03,-105.56 306.66,-105.56 115.62,0 222.08,39.43 306.65,105.56 84.56,-66.13 191.02,-105.56 306.65,-105.56 115.63,0 222.09,39.43 306.65,105.56 84.57,-66.13 191.03,-105.56 306.65,-105.56 115.63,0 222.09,39.43 306.66,105.56 84.56,-66.13 191.02,-105.56 306.65,-105.56 275.14,0 498.33,223.14 498.33,498.28 0,275.19 -223.14,498.33 -498.33,498.33 -115.63,0 -222.09,-39.43 -306.6,-105.56 -84.57,66.13 -191.03,105.56 -306.71,105.56 -115.62,0 -222.08,-39.43 -306.6,-105.56 -84.56,66.13 -191.02,105.56 -306.7,105.56 -115.63,0 -222.09,-39.43 -306.6,-105.56 -84.57,66.13 -191.03,105.56 -306.7,105.56 -37.38,0 -73.75,-4.11 -108.77,-11.93 7.82,35.02 11.93,71.39 11.93,108.77 0,45.09 -6.02,88.77 -17.24,130.35 41.53,-11.22 85.22,-17.23 130.31,-17.23 115.62,0 222.08,39.43 306.65,105.56 84.57,-66.13 191.02,-105.56 306.65,-105.56 115.63,0 222.09,39.43 306.65,105.56 84.57,-66.13 191.03,-105.56 306.66,-105.56 275.14,0 498.32,223.14 498.32,498.28 0,52.8 -8.21,103.7 -23.44,151.49 43.93,-12.67 90.38,-19.48 138.42,-19.48 275.14,0 498.33,223.13 498.33,498.27 0,275.19 -223.14,498.33 -498.33,498.33 -48.04,0 -94.49,-6.81 -138.42,-19.49 15.23,47.75 23.44,98.65 23.44,151.45 0,275.19 -223.13,498.33 -498.32,498.33 -115.63,0 -222.09,-39.43 -306.61,-105.56 -84.56,66.13 -191.02,105.56 -306.7,105.56 -115.63,0 -222.08,-39.43 -306.6,-105.56 -84.57,66.13 -191.03,105.56 -306.7,105.56 -115.63,0 -222.09,-39.43 -306.6,-105.56 -84.57,66.13 -191.03,105.56 -306.71,105.56 -115.62,0 -222.08,-39.43 -306.6,-105.56zm-306.7 -670.61c153.5,0 277.9,124.39 277.9,277.84 0,153.5 -124.4,277.9 -277.9,277.9 -153.45,0 -277.85,-124.4 -277.85,-277.9 0,-153.45 124.4,-277.84 277.85,-277.84zm3050.29 -2467.15c153.5,0 277.89,124.4 277.89,277.85 0,153.5 -124.39,277.89 -277.89,277.89 -153.45,0 -277.85,-124.39 -277.85,-277.89 0,-153.45 124.4,-277.85 277.85,-277.85zm-613.31 0c153.51,0 277.9,124.4 277.9,277.85 0,153.5 -124.39,277.89 -277.9,277.89 -153.45,0 -277.84,-124.39 -277.84,-277.89 0,-153.45 124.39,-277.85 277.84,-277.85zm-613.3 0c153.5,0 277.9,124.4 277.9,277.85 0,153.5 -124.4,277.89 -277.9,277.89 -153.45,0 -277.85,-124.39 -277.85,-277.89 0,-153.45 124.4,-277.85 277.85,-277.85zm-613.3 0c153.5,0 277.89,124.4 277.89,277.85 0,153.5 -124.39,277.89 -277.89,277.89 -153.46,0 -277.85,-124.39 -277.85,-277.89 0,-153.45 124.39,-277.85 277.85,-277.85zm-613.31 0c153.5,0 277.9,124.4 277.9,277.85 0,153.5 -124.4,277.89 -277.9,277.89 -153.45,0 -277.84,-124.39 -277.84,-277.89 0,-153.45 124.39,-277.85 277.84,-277.85zm18.14 595.17c153.5,0 277.89,124.4 277.89,277.85 0,153.5 -124.39,277.89 -277.89,277.89 -153.45,0 -277.85,-124.39 -277.85,-277.89 0,-153.45 124.4,-277.85 277.85,-277.85zm-613.31 0c153.5,0 277.9,124.4 277.9,277.85 0,153.5 -124.4,277.89 -277.9,277.89 -153.45,0 -277.84,-124.39 -277.84,-277.89 0,-153.45 124.39,-277.85 277.84,-277.85zm2451.32 611.4c153.5,0 277.89,124.4 277.89,277.85 0,153.5 -124.39,277.89 -277.89,277.89 -153.46,0 -277.85,-124.39 -277.85,-277.89 0,-153.45 124.39,-277.85 277.85,-277.85zm-613.31 0c153.5,0 277.9,124.4 277.9,277.85 0,153.5 -124.4,277.89 -277.9,277.89 -153.45,0 -277.84,-124.39 -277.84,-277.89 0,-153.45 124.39,-277.85 277.84,-277.85zm-613.3 0c153.5,0 277.89,124.4 277.89,277.85 0,153.5 -124.39,277.89 -277.89,277.89 -153.45,0 -277.85,-124.39 -277.85,-277.89 0,-153.45 124.4,-277.85 277.85,-277.85zm-613.31 0c153.51,0 277.9,124.4 277.9,277.85 0,153.5 -124.39,277.89 -277.9,277.89 -153.45,0 -277.84,-124.39 -277.84,-277.89 0,-153.45 124.39,-277.85 277.84,-277.85zm2453.22 630.29c153.5,0 277.9,124.39 277.9,277.84 0,153.51 -124.4,277.9 -277.9,277.9 -153.45,0 -277.85,-124.39 -277.85,-277.9 0,-153.45 124.4,-277.84 277.85,-277.84zm-613.3 0c153.5,0 277.89,124.39 277.89,277.84 0,153.51 -124.39,277.9 -277.89,277.9 -153.46,0 -277.85,-124.39 -277.85,-277.9 0,-153.45 124.39,-277.84 277.85,-277.84zm0 630.29c153.5,0 277.89,124.39 277.89,277.84 0,153.5 -124.39,277.9 -277.89,277.9 -153.46,0 -277.85,-124.4 -277.85,-277.9 0,-153.45 124.39,-277.84 277.85,-277.84zm-613.31 0c153.5,0 277.9,124.39 277.9,277.84 0,153.5 -124.4,277.9 -277.9,277.9 -153.45,0 -277.84,-124.4 -277.84,-277.9 0,-153.45 124.39,-277.84 277.84,-277.84zm-613.3 0c153.5,0 277.89,124.39 277.89,277.84 0,153.5 -124.39,277.9 -277.89,277.9 -153.45,0 -277.85,-124.4 -277.85,-277.9 0,-153.45 124.4,-277.84 277.85,-277.84zm-613.31 0c153.51,0 277.9,124.39 277.9,277.84 0,153.5 -124.39,277.9 -277.9,277.9 -153.45,0 -277.84,-124.4 -277.84,-277.9 0,-153.45 124.39,-277.84 277.84,-277.84z"/>
 </g>
</svg>
